<?xml version="1.0" encoding="UTF-8"?>
<svg id="Laag_1" data-name="Laag 1" xmlns="http://www.w3.org/2000/svg" width="300" height="300" version="1.1" viewBox="0 0 300 300">
  <defs>
    <style>
      .cls-1 {
        fill: #5ec4e8;
      }

      .cls-1, .cls-2, .cls-3, .cls-4, .cls-5, .cls-6, .cls-7 {
        stroke-width: 0px;
      }

      .cls-2 {
        fill: #00b3df;
      }

      .cls-3 {
        fill: #f088b6;
      }

      .cls-4 {
        fill: #000;
      }

      .cls-5 {
        fill: #fff;
      }

      .cls-6 {
        fill: #00aadb;
      }

      .cls-7 {
        fill: #b1dff3;
      }
    </style>
  </defs>
  <path class="cls-6" d="M204.9,105.9l29.9-32.9s-1.5-13.8-11.4-17.9,2.7-13.8,9.3-7.8c3.3,2.7,6.3,5.7,9.3,9,0,0,13.2-25.1,17.6-25.7s13.2-.3-2.7,21.2c0,0,24.2-16.7,26.6-7.8s-17.9,14.4-17.9,14.4c0,0,26.6-7.2,26.9.6s-22.4,9.6-22.4,9.6c0,0-7.5,13.5-16.4,12.6l-42.5,54.1"/>
  <path class="cls-7" d="M159.4,0s23.6,30.2.9,47.5c0,0,6,18.5,25.7,17.9,0,0,30.8-49.6-26.6-65.5Z"/>
  <path class="cls-7" d="M33.5,29.9s-11.1,36.8,16.4,44.6c0,0,1.2,19.4-17.6,26.3.3-.3-46.3-35.3,1.2-70.9Z"/>
  <path class="cls-2" d="M102.3,244.3s-22.4,6-7.2,26.9c0,0-36.8,3.3-36.2,15.3.6,12,26.3,17.6,45.2,10.2,18.8-7.5,15-17.6,7.8-27.8-9.9-14.4,20-16.7,20-16.7,0,0-23.3-9.3-29.6-7.8Z"/>
  <path class="cls-2" d="M199.2,198s25.4-15.5,21.8,12.3c0,0,33.8-15.3,39.2-4.8s-14.1,28.4-34.4,31.1-21.8-8.1-20.6-20.3-18.8,9-18.8,9c0,0,6.6-25.4,12.9-27.2Z"/>
  <path class="cls-2" d="M41.6,163s-45.5,25.1-31.4,45.8,41.9,14.4,41.9,14.4c0,0-1.2,18.8,15.8,12.3,12.6-4.8,20.9-8.7,9.9-20-16.7-16.7-48.1-18.5-48.1-18.5l21.8-11.4-9.9-22.4Z"/>
  <path class="cls-1" d="M208.5,106.8c-14.1-67.9-57.4-66.1-105.6-54.4-48.1,11.7-85.2,29.3-68.8,96.9,16.4,67.6,68.8,113.3,116.9,100.8,41-10.8,72.4-70.3,57.4-143.2Z"/>
  <path class="cls-4" d="M133.4,178.5c21.8-5.1,35.6-26.6,30.5-48.4l-79.8,19.1c5.4,21.5,27.2,34.7,48.7,29.3h.6Z"/>
  <path class="cls-5" d="M102.3,145l8.1,10.5c.9,1.2,2.4,1.2,3.3.6.6-.3.9-.9.9-1.5l2.1-13.2-14.4,3.6Z"/>
  <path class="cls-5" d="M116.7,141.4l8.1,10.5c.9.9,2.4,1.2,3.6.3.3-.3.6-.6.9-1.2l2.1-13.2-14.7,3.6Z"/>
  <path class="cls-5" d="M131.3,137.9l8.1,10.5c.9,1.2,2.4,1.2,3.3.6.6-.3.9-.9.9-1.5l2.1-12.9-14.4,3.3Z"/>
  <circle class="cls-5" cx="84.1" cy="107.7" r="26.3"/>
  <ellipse class="cls-4" cx="84.9" cy="111.8" rx="16.1" ry="16.7" transform="translate(-24.1 23.3) rotate(-13.7)"/>
  <circle class="cls-5" cx="88" cy="104.7" r="6.3"/>
  <circle class="cls-5" cx="82.3" cy="114.2" r="3.3"/>
  <circle class="cls-5" cx="144.5" cy="92.7" r="26.3"/>
  <ellipse class="cls-4" cx="145.4" cy="97.2" rx="16.1" ry="16.7" transform="translate(-28.3 76.4) rotate(-26.9)"/>
  <circle class="cls-5" cx="148.7" cy="90" r="6.3" transform="translate(26.9 214) rotate(-76.7)"/>
  <circle class="cls-5" cx="142.7" cy="99.6" r="3.3"/>
  <ellipse class="cls-3" cx="200.7" cy="158.8" rx="6.3" ry="14.7"/>
  <ellipse class="cls-3" cx="188" cy="175.6" rx="9" ry="3.9" transform="translate(5.3 356.7) rotate(-87.8)"/>
  <ellipse class="cls-3" cx="195.4" cy="192.2" rx="9.9" ry="3.6" transform="translate(-56.3 300.8) rotate(-67.9)"/>
</svg>