<svg id="Laag_1" data-name="Laag 1" xmlns="http://www.w3.org/2000/svg" width="407" height="201" viewBox="0 0 407 201"><title>Doedels_Logo_Web</title><path d="M71.73,134.87c-4.19,6.75-8.91,11.79-16.12,15.2L48,153.61c-1.7.78-3,.78-4.78,1.31-3.54,1.18-7,4.25-10.42,6-5.3,2.62-13,3.14-15.78-3.08-1.77-4.06-.59-6.49,2.09-9.37,1.18-1.31,2.23-3.73,3.67-4.71,3.28-2.17,7.8.78,7.73-4.46-.13-9-.79-17.82-1.64-26.79C28,104.15,26.6,96.29,26.33,88c-.13-3.67-.39-7.14-.85-10.81C25,73.3,26,64.39,20.24,65.31c-4.19.65-8.19,3.86-12.44,4C3.8,69.43.13,64.85,0,61c-.06-3.27,2.56-5.76,5-7.53,5.17-3.86,11.4-5.76,17.62-7.27a88.55,88.55,0,0,1,25.55-3c17,.79,31.37,9.44,36.48,26.2C91.38,91.12,84.24,116.6,71.73,134.87ZM61.05,65.31c-5.17-1.44-9.89-3-15.26-3.08-3.08-.07-6.36-1.11-6.42,2.82a29.88,29.88,0,0,0,.92,5.3c1.24,6.36,2.35,12.77,3.47,19.13.78,4.58.33,9.37.26,14,0,4.39-.52,9.11-.07,13.49.33,3.15,1.18,6.29,1.71,9.37.13.79.59,7.47,1,7.8,1.64,1.31,9.89-7.08,11-8.06a58,58,0,0,0,5.18-4.72c6-7.07,8-17.75,8.65-19s.45-3,.59-4.39C72.71,88.5,72.91,68.32,61.05,65.31Z" style="fill:#8ad300"/><path d="M120.79,154.33c-13.56,0-25.94-12.78-30.33-24.83-3.8-10.48,2.56-19.85,9.3-27.64,3.74-4.32,8.45-8.65,14.09-10.29a12.6,12.6,0,0,1,8.05.07c3.21,1.18,4.79,3.86,7.47,5.63,4.72,3.15,9.57,2.62,12.32,8.26a59.51,59.51,0,0,1,5.5,17.36C149.15,137.56,136,154.33,120.79,154.33Zm-2.29-44.41c-1.25,0-2.23.52-3.41.45s-2.68-1-4.06-.91c-2.75.26-4,3.47-5,5.76-3.4,8.06-1.57,15.33,6.23,20,7.59,4.52,18.34,1.44,20.17-8C134.15,119.22,126.75,109.92,118.5,109.92Z" style="fill:#8ad300"/><path d="M192.85,101.47c-7.21,1.63-13.5,4.78-21,5.89-2.09.33-5.83,0-7.33,1.7s-.53,3.61,1,4.79c1.9,1.5,3.6,3.07,6,3.4s5.63,1.38,8,.59c4-1.31,7.27-5.57,11.92-3.34,4.26,2.1,5.24,8.58,3.8,12.71-1.44,4.32-5.7,6.55-9.89,7.6-23.58,6-42.78-17.3-38.06-39.76,1.18-5.7,3.73-12.58,8.65-16,2-1.44,3.53-3.8,5.5-5,2.16-1.37,5.57-1.83,8-2.68,5.31-1.77,13-1.51,18.08,1.11C196.19,77,206.67,97.08,192.85,101.47Zm-7.67-14.55c-.52-3.34-6.94-3.8-9.37-3.73a15,15,0,0,0-10.15,4.06c-2.95,3-2.95,5.18-2.95,9.11,4.39-1.44,9.63-1,13.76-2.75C178.11,93,185.64,90,185.18,86.92Z" style="fill:#8ad300"/><path d="M265.88,70.94c-2.95,0-3.47.46-3.93,3.21-.39,2.36-.46,4.85-.65,7.21a88.17,88.17,0,0,1-1.25,11c-1.37,6.62-3.14,13-3.27,19.72-.13,7-1.38,13.29-2.3,20.11-.39,2.62-1.5,9.1.59,11.33,1.58,1.64,4.85,1.11,6.88,1.44,8.58,1.51,6.36,13.3.59,17.1-2.55,1.7-5,1.57-7.86,1.37-3.21-.26-5,.2-8.12.92-6.09,1.44-18.93-.79-14.22-10.15,1.25-2.49,9.7-5.11,6-9-1.32-1.38-2.89-.33-4.26.19a63.39,63.39,0,0,1-9.57,3.15c-16,3.47-27.51-19.13-23-32.16,2.16-6.42,6-12.45,9.89-18,2.22-3.15,4.39-2.69,7.92-4,7.41-2.82,13-5.76,21.1-3.27,2.68.85,3.86,1.57,4.45-1.38.39-1.9.2-3.93.59-5.83.92-4.58,3.27-9,2.23-13.76-.46-2.22-2-4.25-2.69-6.48s-.26-3.47.13-6c.72-4.52,2.56-7.08,7.6-6.81,2.69.13,5.18.78,7.93.46,2.35-.27,4.84-1.18,7.2-.73C277.67,52.47,276,70.94,265.88,70.94Zm-27.57,33.87c-4.26,0-10,.59-14,2.09-7.33,2.82-13,14.48-7.27,21.23,6.22,7.33,16.44-.86,19.78-6.88,1-2,2.89-3.21,3.93-5.11C242,113.78,243,104.81,238.31,104.81Z" style="fill:#8ad300"/><path d="M310.1,100.22c-6,3.41-10.94,8.12-17.23,11.2-2.29,1.12-13.3,4.92-7.73,8.91a14.59,14.59,0,0,0,6.22,2c2,0,6.42-.39,8.26-1.37,3.34-1.84,4.78-6.23,8.84-7.34,5.63-1.51,8.58,5,8.58,9.63,0,5.3-3.73,9.23-8.06,11.85-9.1,5.57-20.83,6.56-30,.66-9.82-6.35-14.67-18.54-13.88-29.94a32,32,0,0,1,6.68-18.07c1.24-1.64,1.9-3.8,3.27-5.24,2.1-2.17,5.37-3.74,7.86-5.51a25.31,25.31,0,0,1,16.25-3.8c5.37.86,9.89,5.51,12.71,9.89C316,89.35,316.84,95.57,310.1,100.22Zm-10-12c-1.12-3.14-7.6-1.57-9.7-.85a16.5,16.5,0,0,0-9,7.08c-2.23,3.6-2,5.89-1.24,9.82,3.93-2.68,9.1-3.93,12.77-6.88,1.44-1.11,2.69-2.75,4.19-3.93C299.16,91.77,301.12,91.12,300.08,88.23Z" style="fill:#8ad300"/><path d="M349.73,156.55c-1.57.86-3.61,2.89-5.18,3.28-2.75.72-6.22-1-9-.72-3.8.39-6.87,3.86-11.2,3.21-3.86-.59-6.88-3.8-9-6.81s.53-9.24,2.56-10.48c2.62-1.58,7.27-1,8.51-4.39.79-2.23-.32-5.44,0-7.86,1.51-11.2-.59-23.32-1.18-34.52-.52-9.76,0-19.46.27-29.22.13-4.39.39-8.78.32-13.17a70.81,70.81,0,0,0-.39-9.23c-.46-2.75-.65-2.36-2.88-2.36a24.39,24.39,0,0,0-3.8.26c-6,1.05-8.91-2.16-8.91-8.25,0-3.6,1.31-5.57,4.45-7.27,2-1.12,4.33-1.64,6.23-2.82a22.71,22.71,0,0,1,2.62-1.77c3.08-1.31,7.27-3.21,10.41-1.77,7.4,3.41,4.92,14.28,5.5,21a114.92,114.92,0,0,1,.46,13.5c-.19,6.68-.59,13.42-.59,20.1,0,3.87.92,7.6,1,11.47.32,11.4.32,22.47,1.37,33.86.2,2.1.72,4.13.92,6.23.26,2.49-.72,5.3-.2,7.73s1.77,2.35,3.87,2.81c3.53.72,6.61,3,7.4,6.62S351.76,153.54,349.73,156.55Z" style="fill:#8ad300"/><path d="M391.85,91.31c-2.89.07-6.55-5.57-8.52-7.14-2.75-2.16-6.55-3.14-9.43-.52-2.49,2.23-4.91,6.09-1,8.06,3.47,1.7,6.48,1.17,9.36,3.86s6.68,5.37,9.3,8.58c9,11.27,2,31.25-12.7,32.16a23.79,23.79,0,0,1-4.92,0c-2-.19-5-1.37-6.94-.91-3.86.78-4.39,5.83-9.17,5.5-12.51-.92-4.91-23.25-.07-29,1.77-2.1,1.9-1.64,4.59-1,2.36.53,2.95,1,4.39,3.08,1,1.44,1.24,3,2.16,4.26,1.24,1.9,1.9,2.42,4,2.23,5.5-.53,9.63-2.23,7.27-8.58-1.71-4.66-7.21-6.29-11.27-8.26s-8.52-3.34-10.22-7.92c-2.75-7.41.59-16.45,6.95-20.77,4.71-3.21,10.41-3.08,15.52-5.3,4.58-2,2.69-7.6,8.65-8.06,8.58-.59,7.92,8.64,8.51,14.21.33,3.41,2.23,6.49,1.51,10C398.86,89.48,395.65,91.18,391.85,91.31Z" style="fill:#8ad300"/><path d="M34.19,175.22v7a3.48,3.48,0,0,1,2.89-1.37,4.73,4.73,0,0,1,3.27,1.24,4.91,4.91,0,0,1,1.44,3.67,5.27,5.27,0,0,1-1.44,3.73,4.13,4.13,0,0,1-3.21,1.31,3.35,3.35,0,0,1-3-1.44v1.12h-3V175.22Zm.53,8.91a2.56,2.56,0,0,0-.66,1.71,2.3,2.3,0,0,0,.72,1.7,2.62,2.62,0,0,0,1.71.72,2.41,2.41,0,0,0,1.57-4.13,2.16,2.16,0,0,0-1.64-.65A1.9,1.9,0,0,0,34.72,184.13Z" style="fill:#666"/><path d="M50.83,181.12h3v9.37h-3v-1.12a3,3,0,0,1-2.75,1.44,4.27,4.27,0,0,1-3.47-1.44,5,5,0,0,1-1.38-3.47,5.55,5.55,0,0,1,1.44-3.8A4.7,4.7,0,0,1,48,180.79a3.54,3.54,0,0,1,2.95,1.38v-1ZM47,184.07a2.45,2.45,0,0,0-.07,3.4,2.32,2.32,0,0,0,1.77.72,2.28,2.28,0,0,0,1.57-.65,2.42,2.42,0,0,0,.72-1.77,2.25,2.25,0,0,0-.72-1.7,2.42,2.42,0,0,0-1.7-.66A2.25,2.25,0,0,0,47,184.07Z" style="fill:#666"/><path d="M59.15,175.22v7A3.47,3.47,0,0,1,62,180.86a4.76,4.76,0,0,1,3.28,1.24,4.91,4.91,0,0,1,1.44,3.67,5.27,5.27,0,0,1-1.44,3.73,4.16,4.16,0,0,1-3.21,1.31,3.35,3.35,0,0,1-3-1.44v1.12h-3V175.22Zm.53,8.91a2.56,2.56,0,0,0-.66,1.71,2.3,2.3,0,0,0,.72,1.7,2.62,2.62,0,0,0,1.7.72A2.24,2.24,0,0,0,63,187.6a2.28,2.28,0,0,0,.72-1.7,2.25,2.25,0,0,0-.72-1.77,2.18,2.18,0,0,0-1.64-.65A1.88,1.88,0,0,0,59.68,184.13Z" style="fill:#666"/><path d="M71.47,189.31,67,181.18h3.47l2.62,5,2.56-5h3.4l-7.53,14.15h-3.4Z" style="fill:#666"/><path d="M79.72,183.87h5.37v2.62H79.72Z" style="fill:#666"/><path d="M101.73,186.36h-7a2.36,2.36,0,0,0,.59,1.57,2,2,0,0,0,1.57.59,2.48,2.48,0,0,0,1.25-.26,1.66,1.66,0,0,0,.65-.79l2.88.26a3.93,3.93,0,0,1-1.83,2.36,5.73,5.73,0,0,1-3,.72,4.65,4.65,0,0,1-5.11-4.91,5.11,5.11,0,0,1,1.44-3.67,5,5,0,0,1,3.61-1.31,5.13,5.13,0,0,1,3.73,1.38,5.31,5.31,0,0,1,1.31,3.8v.26Zm-2.82-1.83a2.83,2.83,0,0,0-.59-1.12,1.9,1.9,0,0,0-1.44-.52,2,2,0,0,0-1.5.59,1.78,1.78,0,0,0-.53,1h4.06Z" style="fill:#666"/><path d="M103.56,181.12h3v1.11a3.41,3.41,0,0,1,2.88-1.37,3.74,3.74,0,0,1,2.68.91,3.68,3.68,0,0,1,.92,2.76v5.89h-3v-4.78a2.34,2.34,0,0,0-.53-1.84,1.51,1.51,0,0,0-1.18-.39,1.47,1.47,0,0,0-1.24.53,2.32,2.32,0,0,0-.59,1.76v4.79h-3v-9.37Z" style="fill:#666"/><path d="M123.35,175.22v9.37l3.4-3.41h3.93l-4.45,4.26,4.78,5.11H127l-3.6-4v4h-3V175.29h3Z" style="fill:#666"/><path d="M133.76,175.35a1.77,1.77,0,1,1-1.77,1.77A1.77,1.77,0,0,1,133.76,175.35Zm1.51,5.77v9.37h-3v-9.37Z" style="fill:#666"/><path d="M137.69,181.12h3v1.11a3.42,3.42,0,0,1,2.89-1.37,3.23,3.23,0,0,1,3.6,3.67v5.89h-3v-4.78a2.34,2.34,0,0,0-.53-1.84,1.51,1.51,0,0,0-1.18-.39,1.45,1.45,0,0,0-1.24.53,2.28,2.28,0,0,0-.59,1.76v4.79h-3v-9.37Z" style="fill:#666"/><path d="M159.7,190.49h-3v-1.12a3.35,3.35,0,0,1-2.95,1.44,4.24,4.24,0,0,1-3.21-1.31,5.47,5.47,0,0,1,0-7.4,4.62,4.62,0,0,1,3.27-1.24,3.33,3.33,0,0,1,2.89,1.37v-7h3Zm-6.81-6.42a2.29,2.29,0,0,0-.72,1.77,2.16,2.16,0,0,0,.72,1.7,2.23,2.23,0,0,0,1.57.65,2.48,2.48,0,0,0,1.7-.72,2.39,2.39,0,0,0,.72-1.7,2.51,2.51,0,0,0-.65-1.7,2.13,2.13,0,0,0-1.7-.72A2.48,2.48,0,0,0,152.89,184.07Z" style="fill:#666"/><path d="M171.62,186.36h-7a2.36,2.36,0,0,0,.59,1.57,2,2,0,0,0,1.57.59,2.48,2.48,0,0,0,1.25-.26,1.66,1.66,0,0,0,.65-.79l2.89.26a4,4,0,0,1-1.84,2.36,5.71,5.71,0,0,1-2.95.72,5,5,0,0,1-3.66-8.58,4.94,4.94,0,0,1,3.6-1.31,5.12,5.12,0,0,1,3.73,1.38,5.26,5.26,0,0,1,1.31,3.8v.26Zm-2.81-1.83a3,3,0,0,0-.59-1.12,1.94,1.94,0,0,0-1.45-.52,2,2,0,0,0-1.5.59,1.85,1.85,0,0,0-.53,1h4.07Z" style="fill:#666"/><path d="M173.46,181.12h3v1.44a3.81,3.81,0,0,1,1.18-1.31,2.87,2.87,0,0,1,1.64-.39,4.22,4.22,0,0,1,1,.13l-.2,2.81a3.11,3.11,0,0,0-1.37-.32,2,2,0,0,0-1.51.65,3.56,3.56,0,0,0-.72,2.49v3.8h-3Z" style="fill:#666"/><path d="M181.45,181.12h3v1.11a2.93,2.93,0,0,1,2.62-1.31,4.15,4.15,0,0,1,1.77.4,2.75,2.75,0,0,1,1.11,1.31,4,4,0,0,1,1.18-1.18,3.53,3.53,0,0,1,2-.53,4,4,0,0,1,2.62.85,3.76,3.76,0,0,1,1,2.82v5.9h-3v-4.72a3.16,3.16,0,0,0-.4-1.83,1.38,1.38,0,0,0-1.11-.53A1.48,1.48,0,0,0,191,184a3.12,3.12,0,0,0-.46,1.84v4.65h-3v-4.85a2.51,2.51,0,0,0-.46-1.84,1.4,1.4,0,0,0-1-.39,1.5,1.5,0,0,0-1,.39,2.68,2.68,0,0,0-.59,1.9v4.79h-3v-9.37Z" style="fill:#666"/><path d="M208.11,189.31a5.75,5.75,0,0,1-4.06,1.5,5.51,5.51,0,0,1-4.06-1.5,5.07,5.07,0,0,1,0-6.95,5.75,5.75,0,0,1,4.06-1.5,5.54,5.54,0,0,1,4.06,1.5,5.12,5.12,0,0,1,1.37,3.48A5.25,5.25,0,0,1,208.11,189.31Zm-5.77-5.24a2.52,2.52,0,0,0,0,3.53,2.26,2.26,0,0,0,1.71.66,2.59,2.59,0,0,0,1.7-.66,2.2,2.2,0,0,0,.72-1.76,2.31,2.31,0,0,0-.72-1.77,2.22,2.22,0,0,0-1.7-.66A2.15,2.15,0,0,0,202.34,184.07Z" style="fill:#666"/><path d="M221.47,190.49h-3v-1.12a3.35,3.35,0,0,1-3,1.44,4.24,4.24,0,0,1-3.21-1.31,5.47,5.47,0,0,1,0-7.4,4.65,4.65,0,0,1,3.28-1.24,3.32,3.32,0,0,1,2.88,1.37v-7h3Zm-6.81-6.42a2.29,2.29,0,0,0-.72,1.77,2.16,2.16,0,0,0,.72,1.7,2.23,2.23,0,0,0,1.57.65,2.48,2.48,0,0,0,1.7-.72,2.39,2.39,0,0,0,.72-1.7,2.51,2.51,0,0,0-.65-1.7,2.13,2.13,0,0,0-1.7-.72A2.78,2.78,0,0,0,214.66,184.07Z" style="fill:#666"/><path d="M233.39,186.36h-7a2.36,2.36,0,0,0,.59,1.57,2,2,0,0,0,1.57.59,2.48,2.48,0,0,0,1.25-.26,1.61,1.61,0,0,0,.65-.79l2.89.26a4,4,0,0,1-1.84,2.36,5.71,5.71,0,0,1-3,.72,5,5,0,0,1-3.66-8.58,4.94,4.94,0,0,1,3.6-1.31,5.12,5.12,0,0,1,3.73,1.38,5.26,5.26,0,0,1,1.31,3.8v.26Zm-2.75-1.83a3,3,0,0,0-.59-1.12,1.91,1.91,0,0,0-1.44-.52,2,2,0,0,0-1.51.59,1.84,1.84,0,0,0-.52,1h4.06Z" style="fill:#666"/><path d="M242.89,173.45h2.62v21h-2.62Z" style="fill:#666"/><path d="M258.61,175.22v9.37l3.41-3.41H266l-4.46,4.26,4.79,5.11h-4.07l-3.6-4v4h-3V175.29h3Z" style="fill:#666"/><path d="M267.45,181.12h3v1.44a3.81,3.81,0,0,1,1.18-1.31,2.84,2.84,0,0,1,1.63-.39,4.24,4.24,0,0,1,1,.13l-.2,2.81a3.12,3.12,0,0,0-1.38-.32,2,2,0,0,0-1.5.65,3.56,3.56,0,0,0-.72,2.49v3.8h-3v-9.3Z" style="fill:#666"/><path d="M282.65,181.12h3v9.37h-3v-1.12a3,3,0,0,1-2.75,1.44,4.27,4.27,0,0,1-3.47-1.44,5,5,0,0,1-1.38-3.47,5.55,5.55,0,0,1,1.44-3.8,4.7,4.7,0,0,1,3.28-1.31,3.54,3.54,0,0,1,3,1.38v-1Zm-3.86,2.95a2.45,2.45,0,0,0-.07,3.4,2.31,2.31,0,0,0,1.77.72,2.28,2.28,0,0,0,1.57-.65,2.46,2.46,0,0,0,.72-1.77,2.25,2.25,0,0,0-.72-1.7,2.42,2.42,0,0,0-1.7-.66A2.25,2.25,0,0,0,278.79,184.07Z" style="fill:#666"/><path d="M295.1,181.12h3v9.37h-3v-1.12a3.07,3.07,0,0,1-2.75,1.44,4.3,4.3,0,0,1-3.48-1.44,5,5,0,0,1-1.37-3.47,5.55,5.55,0,0,1,1.44-3.8,4.67,4.67,0,0,1,3.27-1.31,3.54,3.54,0,0,1,3,1.38v-1Zm-3.8,2.95a2.45,2.45,0,0,0-.07,3.4,2.32,2.32,0,0,0,1.77.72,2.28,2.28,0,0,0,1.57-.65,2.42,2.42,0,0,0,.72-1.77,2.25,2.25,0,0,0-.72-1.7,2.42,2.42,0,0,0-1.7-.66A2.25,2.25,0,0,0,291.3,184.07Z" style="fill:#666"/><path d="M300.4,181.12h3v1.11a2.92,2.92,0,0,1,2.62-1.31,4.09,4.09,0,0,1,1.76.4,2.76,2.76,0,0,1,1.12,1.31,3.87,3.87,0,0,1,1.18-1.18,3.47,3.47,0,0,1,2-.53,3.93,3.93,0,0,1,2.62.85,3.74,3.74,0,0,1,1,2.82v5.9h-3v-4.72a3.22,3.22,0,0,0-.39-1.83,1.4,1.4,0,0,0-1.11-.53A1.47,1.47,0,0,0,310,184a3.05,3.05,0,0,0-.46,1.84v4.65h-3v-4.85a2.56,2.56,0,0,0-.45-1.84,1.4,1.4,0,0,0-1-.39,1.48,1.48,0,0,0-1,.39,2.68,2.68,0,0,0-.59,1.9v4.79h-3v-9.37Z" style="fill:#666"/><path d="M325,184.07a3.14,3.14,0,0,0-2-.72,2.34,2.34,0,0,0-2.43,2.42,2.38,2.38,0,0,0,.66,1.7,2.46,2.46,0,0,0,1.83.79,2.76,2.76,0,0,0,1.9-.72v2.75a4.48,4.48,0,0,1-2.36.59,5.14,5.14,0,0,1-3.6-1.38,5.06,5.06,0,0,1,.13-7.2,5,5,0,0,1,3.54-1.31,5.18,5.18,0,0,1,2.36.52v2.56Z" style="fill:#666"/><path d="M334.14,181.12h3v9.37h-3v-1.12a3.07,3.07,0,0,1-2.75,1.44,4.3,4.3,0,0,1-3.48-1.44,5,5,0,0,1-1.37-3.47,5.55,5.55,0,0,1,1.44-3.8,4.7,4.7,0,0,1,3.28-1.31,3.53,3.53,0,0,1,2.94,1.38v-1Zm-3.87,2.95a2.31,2.31,0,0,0-.72,1.7,2.26,2.26,0,0,0,.66,1.7,2.31,2.31,0,0,0,1.77.72,2.28,2.28,0,0,0,1.57-.65,2.46,2.46,0,0,0,.72-1.77,2.25,2.25,0,0,0-.72-1.7,2.44,2.44,0,0,0-1.71-.66A2.29,2.29,0,0,0,330.27,184.07Z" style="fill:#666"/><path d="M349.6,190.49h-3v-1.12a3.35,3.35,0,0,1-2.94,1.44,4.24,4.24,0,0,1-3.21-1.31,5.45,5.45,0,0,1,0-7.4,4.61,4.61,0,0,1,3.27-1.24,3.31,3.31,0,0,1,2.88,1.37v-7h3Zm-6.82-6.42a2.33,2.33,0,0,0-.72,1.77,2.19,2.19,0,0,0,.72,1.7,2.23,2.23,0,0,0,1.58.65,2.48,2.48,0,0,0,1.7-.72,2.39,2.39,0,0,0,.72-1.7,2.51,2.51,0,0,0-.66-1.7,2.1,2.1,0,0,0-1.7-.72A2.81,2.81,0,0,0,342.78,184.07Z" style="fill:#666"/><path d="M361.52,186.36h-7a2.36,2.36,0,0,0,.59,1.57,2,2,0,0,0,1.57.59,2.48,2.48,0,0,0,1.25-.26,1.66,1.66,0,0,0,.65-.79l2.88.26a3.93,3.93,0,0,1-1.83,2.36,5.73,5.73,0,0,1-2.95.72,4.65,4.65,0,0,1-5.11-4.91,5.11,5.11,0,0,1,1.44-3.67,5,5,0,0,1,3.61-1.31,5.13,5.13,0,0,1,3.73,1.38,5.31,5.31,0,0,1,1.31,3.8v.26Zm-2.75-1.83a3,3,0,0,0-.59-1.12,1.93,1.93,0,0,0-1.44-.52,2,2,0,0,0-1.51.59,1.77,1.77,0,0,0-.52,1h4.06Z" style="fill:#666"/><path d="M370.49,181.12h3v9.37h-3v-1.12a3,3,0,0,1-2.75,1.44,4.27,4.27,0,0,1-3.47-1.44,5,5,0,0,1-1.38-3.47,5.55,5.55,0,0,1,1.44-3.8,4.7,4.7,0,0,1,3.28-1.31,3.54,3.54,0,0,1,2.95,1.38v-1Zm-3.86,2.95a2.45,2.45,0,0,0-.07,3.4,2.32,2.32,0,0,0,1.77.72,2.28,2.28,0,0,0,1.57-.65,2.42,2.42,0,0,0,.72-1.77,2.25,2.25,0,0,0-.72-1.7,2.42,2.42,0,0,0-1.7-.66A2.54,2.54,0,0,0,366.63,184.07Z" style="fill:#666"/><path d="M378.81,181.12v5.17a2.12,2.12,0,0,0,.53,1.51,1.66,1.66,0,0,0,1.24.46,2,2,0,0,0,1.31-.46,1.94,1.94,0,0,0,.52-1.51v-5.17h3v5.44a3.89,3.89,0,0,1-1.05,3,5.25,5.25,0,0,1-3.73,1.24,5.4,5.4,0,0,1-3.8-1.24,3.61,3.61,0,0,1-1.05-2.82v-5.63Z" style="fill:#666"/><path d="M393.09,183.54a3.49,3.49,0,0,0-1.64-.52,1.2,1.2,0,0,0-.85.26.55.55,0,0,0-.19.39.45.45,0,0,0,.26.4,4.59,4.59,0,0,0,.91.32l.79.27a5.74,5.74,0,0,1,1.57.78,2.27,2.27,0,0,1,.72,1.77,3.08,3.08,0,0,1-1,2.42,4,4,0,0,1-3,1.05,5.76,5.76,0,0,1-3.87-1.31l1.31-2a5.91,5.91,0,0,0,1.05.72,2.78,2.78,0,0,0,1.25.26,1.7,1.7,0,0,0,.91-.19.78.78,0,0,0,.33-.59.56.56,0,0,0-.33-.53,3.48,3.48,0,0,0-.91-.32l-.79-.27a4.18,4.18,0,0,1-1.51-.85,2.21,2.21,0,0,1-.65-1.7,2.75,2.75,0,0,1,.92-2.16,4,4,0,0,1,2.81-.92,5.56,5.56,0,0,1,3.08.79Z" style="fill:#666"/><path d="M147.39,35.44l10-11s-.46-4.65-3.8-6,.85-4.59,3.08-2.56a40.29,40.29,0,0,1,3.08,3s4.39-8.45,5.9-8.59,4.38-.06-.86,7.08c0,0,8.06-5.63,8.91-2.62s-6,4.78-6,4.78,8.91-2.36,9,.2-7.47,3.21-7.47,3.21-2.49,4.45-5.5,4.19L149.55,45.2" style="fill:#00aadb"/><path d="M132.19,0s7.92,10.09.26,15.85c0,0,2,6.16,8.65,6C141.1,21.88,151.45,5.31,132.19,0Z" style="fill:#b1dff3"/><path d="M90.13,10S86.4,22.27,95.64,24.89c0,0,.39,6.49-5.9,8.78C89.81,33.6,74.15,21.94,90.13,10Z" style="fill:#b1dff3"/><path d="M113.13,81.68s-7.54,2-2.36,9c0,0-12.32,1.11-12.12,5.11s8.78,5.89,15.13,3.4,5-5.89,2.62-9.3c-3.27-4.78,6.68-5.57,6.68-5.57S115.22,81.16,113.13,81.68Z" style="fill:#00b3df"/><path d="M145.49,66.16S154,61,152.82,70.29c0,0,11.27-5.11,13.1-1.58s-4.71,9.5-11.46,10.42-7.34-2.69-6.88-6.81-6.29,3-6.29,3S143.39,66.75,145.49,66.16Z" style="fill:#00b3df"/><path d="M92.75,54.5S77.56,62.88,82.27,69.83s14,4.78,14,4.78-.4,6.35,5.3,4.13c4.19-1.64,7-2.95,3.34-6.69-5.56-5.63-16.11-6.15-16.11-6.15l7.34-3.8Z" style="fill:#00b3df"/><path d="M148.56,35.7c-4.71-22.73-19.19-22.08-35.3-18.21s-28.5,9.83-23,32.36,23,37.93,39.1,33.73C143.13,80,153.61,60.13,148.56,35.7Z" style="fill:#5ec4e8"/><path d="M123.54,59.67a13.59,13.59,0,0,0,10.22-16.24L107,49.91A13.48,13.48,0,0,0,123.54,59.67Z"/><path d="M113.13,48.47,115.81,52a.81.81,0,0,0,1.44-.33l.72-4.39Z" style="fill:#fff"/><path d="M117.91,47.29l2.68,3.54A.82.82,0,0,0,122,50.5l.72-4.39Z" style="fill:#fff"/><path d="M122.82,46.11l2.69,3.54a.81.81,0,0,0,1.44-.33l.72-4.32Z" style="fill:#fff"/><circle cx="106.97" cy="35.96" r="8.78" style="fill:#fff"/><ellipse cx="107.31" cy="37.41" rx="5.44" ry="5.63" transform="translate(-5.81 26.47) rotate(-13.7)"/><circle cx="108.34" cy="34.98" r="2.1" style="fill:#fff"/><circle cx="106.38" cy="38.25" r="1.11" style="fill:#fff"/><circle cx="127.21" cy="31.05" r="8.78" style="fill:#fff"/><ellipse cx="127.54" cy="32.5" rx="5.44" ry="5.63" transform="translate(-0.88 61.3) rotate(-26.94)"/><circle cx="128.59" cy="30.07" r="2.1" style="fill:#fff"/><circle cx="126.56" cy="33.34" r="1.11" style="fill:#fff"/><ellipse cx="146.01" cy="53.12" rx="2.1" ry="4.91" style="fill:#f088b6"/><ellipse cx="141.73" cy="58.69" rx="3.01" ry="1.31" transform="translate(77.67 198.07) rotate(-87.81)" style="fill:#f088b6"/><ellipse cx="144.2" cy="64.28" rx="3.28" ry="1.18" transform="translate(30.31 173.61) rotate(-67.86)" style="fill:#f088b6"/><path d="M244.13,46.11s8.26,4,10.81,2.89,6.42-.85,7.34-.33,2.69,1.44,1.38,2.75-7.47,1.83-7,3.14,1.76,5.25,0,4.79-1.38-3-3.48-4-6.81-1.77-7.4-1.51S244.13,46.11,244.13,46.11Z" style="fill:#e6007e"/><path d="M206.8,106.71h0c-3.47-.13,1.77-4.26,2.68-8.13l-6.81-26.33,13.69-1.18-3,29C213.28,103.89,210.27,106.9,206.8,106.71Z" style="fill:#e6007e"/><path d="M236.14,92h0c3.08-1.64-2.81-2-4.06-4.33l-1.44-19.91-13.3,5.7,10.94,17.16C229.53,93,233.06,93.61,236.14,92Z" style="fill:#e6007e"/><path d="M184.85,55.42s-1.31,11.07-5,12.11-7.34-.06-8.78,2.89c-1.5,3.21,11.79.46,12.64,3.08s5.05,2.94,4,.26-1.7-4.39,1.05-10.16Z" style="fill:#e6007e"/><ellipse cx="214.92" cy="50.44" rx="31.51" ry="31.9" style="fill:#f088b6"/><path d="M204.44,66.22l1.11-5a.9.9,0,0,0-1.37-1l-4.39,2.68Z" style="fill:#fff"/><path d="M225.34,66.22l-1.12-5a.91.91,0,0,1,1.38-1L230,62.88Z" style="fill:#fff"/><ellipse cx="214.92" cy="42.97" rx="15.39" ry="15.59" style="fill:#fff"/><ellipse cx="215.51" cy="45.52" rx="9.56" ry="10.02" transform="translate(-1.91 80.8) rotate(-21.14)"/><circle cx="213.81" cy="47.1" r="2.03" style="fill:#fff"/><path d="M193.17,47a21.69,21.69,0,1,0,43.37,0" style="fill:none;stroke:#e8318a;stroke-miterlimit:10;stroke-width:3.2488999366760254px"/><ellipse cx="193.17" cy="48.21" rx="6.03" ry="6.09" style="fill:#f5b5d2"/><ellipse cx="236.6" cy="48.21" rx="6.03" ry="6.09" style="fill:#f5b5d2"/><path d="M206.34,24l8.91-5.31a2.45,2.45,0,0,0,0-4.19l-8.91-5.3a2.41,2.41,0,0,0-3.67,2.09V21.88A2.45,2.45,0,0,0,206.34,24Z" style="fill:#00aadb"/><path d="M223.44,9.3l-8.91,5.31a2.44,2.44,0,0,0,0,4.19l8.91,5.31A2.41,2.41,0,0,0,227.1,22V11.46A2.42,2.42,0,0,0,223.44,9.3Z" style="fill:#00aadb"/><circle cx="214.92" cy="16.7" r="3.93" style="fill:#5ec4e8"/><circle cx="217.34" cy="41.2" r="3.67" style="fill:#fff"/></svg>