<?xml version="1.0" encoding="UTF-8"?>
<svg id="Laag_1" data-name="Laag 1" xmlns="http://www.w3.org/2000/svg" width="300" height="300" version="1.1" viewBox="0 0 300 300">
  <defs>
    <style>
      .cls-1 {
        fill: #5ec4e8;
      }

      .cls-1, .cls-2, .cls-3, .cls-4, .cls-5, .cls-6, .cls-7 {
        stroke-width: 0px;
      }

      .cls-2 {
        fill: #f088b6;
      }

      .cls-3 {
        fill: #000;
      }

      .cls-8 {
        fill: none;
        stroke: #e8318a;
        stroke-miterlimit: 10;
        stroke-width: 3.2px;
      }

      .cls-4 {
        fill: #fff;
      }

      .cls-5 {
        fill: #00aadb;
      }

      .cls-6 {
        fill: #f5b5d2;
      }

      .cls-7 {
        fill: #e6007e;
      }
    </style>
  </defs>
  <path class="cls-7" d="M231.5,114.2s25.4,12.3,33.1,8.9c7.7-3.4,19.6-2.5,22.4-.9s8.3,4.3,4.3,8.6-23,5.5-21.5,9.5,5.5,15.9,0,14.7-4.3-9.2-10.7-12.3-20.8-5.5-22.7-4.6-4.9-23.9-4.9-23.9Z"/>
  <path class="cls-7" d="M117.1,300h0c-10.7-.3,5.5-13.2,8.3-24.8l-20.8-80.6,42-3.7-9.2,88.9c-.3,11.6-9.5,20.8-20.2,20.2Z"/>
  <path class="cls-7" d="M207,254.9h0c9.5-4.9-8.6-6.1-12.6-13.2l-4.3-61-40.8,17.5,33.4,52.7c4,7.1,15,8.9,24.2,4Z"/>
  <path class="cls-7" d="M50,142.7s-4,34-15.3,37.1-22.4-.3-27,8.9c-4.6,9.8,36.2,1.5,38.6,9.5,2.5,8,15.6,8.9,12.3.9-3.4-8-5.2-13.5,3.4-31.3l-12-25.1Z"/>
  <ellipse class="cls-2" cx="142" cy="127.4" rx="96.6" ry="97.8"/>
  <path class="cls-4" d="M109.8,175.8l3.4-15.3c.3-1.5-.3-3.1-1.8-3.4-.9-.3-1.5,0-2.5.3l-13.5,8.3,14.4,10.1Z"/>
  <path class="cls-4" d="M173.9,175.8l-3.4-15.3c-.3-1.5.6-3.1,1.8-3.4.9-.3,1.5,0,2.1.3l13.5,8.3-14.1,10.1Z"/>
  <ellipse class="cls-4" cx="142" cy="104.7" rx="47.2" ry="47.8"/>
  <ellipse class="cls-3" cx="143.8" cy="112.4" rx="29.4" ry="30.7" transform="translate(-30.9 59.4) rotate(-21.1)"/>
  <circle class="cls-4" cx="138.6" cy="117.3" r="6.1"/>
  <path class="cls-8" d="M75.4,117c-.9,36.8,28.2,67.1,65,68.1,36.8.9,67.1-28.2,68.1-65v-2.8"/>
  <ellipse class="cls-6" cx="75.4" cy="120.6" rx="18.4" ry="18.7"/>
  <ellipse class="cls-6" cx="208.5" cy="120.6" rx="18.4" ry="18.7"/>
  <path class="cls-5" d="M115.6,46.4l27.3-16.2c3.7-2.1,4.6-6.7,2.5-10.4-.6-.9-1.5-1.8-2.5-2.5L115.6,1.1c-3.4-2.1-8-.9-10.1,2.5-.6,1.2-1.2,2.5-1.2,4v32.5c0,4.3,3.4,7.4,7.7,7.4,1.5,0,2.8-.3,3.7-.9Z"/>
  <path class="cls-5" d="M168,1.4l-27.3,16.2c-3.7,2.1-4.6,6.7-2.5,10.1.6.9,1.5,1.8,2.5,2.5l27.3,16.2c3.4,2.1,8,.9,10.1-2.5.6-1.2,1.2-2.5.9-4V8.1c0-4-3.1-7.7-7.1-7.7-1.2-.3-2.8.3-4,.9Z"/>
  <circle class="cls-1" cx="142" cy="24.1" r="12"/>
  <circle class="cls-4" cx="149.3" cy="99.2" r="11.3"/>
</svg>