<?xml version="1.0" encoding="utf-8"?>
<!-- Generator: Adobe Illustrator 28.3.0, SVG Export Plug-In . SVG Version: 6.00 Build 0)  -->
<svg version="1.1" id="Laag_1" xmlns="http://www.w3.org/2000/svg" xmlns:xlink="http://www.w3.org/1999/xlink" x="0px" y="0px"
	 width="407px" height="201px" viewBox="0 0 407 201" style="enable-background:new 0 0 407 201;" xml:space="preserve">
<style type="text/css">
	.st0{fill:#8AD300;}
	.st1{fill:#666666;}
	.st2{fill:#00AADB;}
	.st3{fill:#B1DFF3;}
	.st4{fill:#00B3DF;}
	.st5{fill:#5EC4E8;}
	.st6{fill:#FFFFFF;}
	.st7{fill:#F088B6;}
	.st8{fill:#E6007E;}
	.st9{fill:none;stroke:#E8318A;stroke-width:3.2489;stroke-miterlimit:10;}
	.st10{fill:#F5B5D2;}
</style>
<path class="st0" d="M71.7,134.9c-4.2,6.8-8.9,11.8-16.1,15.2l-7.6,3.5c-1.7,0.8-3,0.8-4.8,1.3c-3.5,1.2-7,4.2-10.4,6
	c-5.3,2.6-13,3.1-15.8-3.1c-1.8-4.1-0.6-6.5,2.1-9.4c1.2-1.3,2.2-3.7,3.7-4.7c3.3-2.2,7.8,0.8,7.7-4.5c-0.1-9-0.8-17.8-1.6-26.8
	c-0.9-8.4-2.3-16.2-2.5-24.5c-0.1-3.7-0.4-7.1-0.9-10.8C25,73.3,26,64.4,20.2,65.3c-4.2,0.7-8.2,3.9-12.4,4c-4,0.1-7.7-4.5-7.8-8.3
	c-0.1-3.3,2.6-5.8,5-7.5c5.2-3.9,11.4-5.8,17.6-7.3c8.3-2.2,16.9-3.2,25.5-3c17,0.8,31.4,9.4,36.5,26.2
	C91.4,91.1,84.2,116.6,71.7,134.9z M61,65.3c-5.2-1.4-9.9-3-15.3-3.1c-3.1-0.1-6.4-1.1-6.4,2.8c0.1,1.8,0.5,3.6,0.9,5.3
	c1.2,6.4,2.3,12.8,3.5,19.1c0.8,4.6,0.3,9.4,0.3,14c0,4.4-0.5,9.1-0.1,13.5c0.3,3.2,1.2,6.3,1.7,9.4c0.1,0.8,0.6,7.5,1,7.8
	c1.6,1.3,9.9-7.1,11-8.1c1.8-1.5,3.6-3,5.2-4.7c6-7.1,8-17.8,8.6-19s0.4-3,0.6-4.4C72.7,88.5,72.9,68.3,61,65.3z"/>
<path class="st0" d="M120.8,154.3c-13.6,0-25.9-12.8-30.3-24.8c-3.8-10.5,2.6-19.8,9.3-27.6c3.7-4.3,8.4-8.7,14.1-10.3
	c2.6-0.9,5.4-0.8,8.1,0.1c3.2,1.2,4.8,3.9,7.5,5.6c4.7,3.2,9.6,2.6,12.3,8.3c2.7,5.5,4.6,11.3,5.5,17.4
	C149.1,137.6,136,154.3,120.8,154.3z M118.5,109.9c-1.2,0-2.2,0.5-3.4,0.4s-2.7-1-4.1-0.9c-2.8,0.3-4,3.5-5,5.8
	c-3.4,8.1-1.6,15.3,6.2,20c7.6,4.5,18.3,1.4,20.2-8C134.1,119.2,126.8,109.9,118.5,109.9z"/>
<path class="st0" d="M192.9,101.5c-7.2,1.6-13.5,4.8-21,5.9c-2.1,0.3-5.8,0-7.3,1.7s-0.5,3.6,1,4.8c1.9,1.5,3.6,3.1,6,3.4
	s5.6,1.4,8,0.6c4-1.3,7.3-5.6,11.9-3.3c4.3,2.1,5.2,8.6,3.8,12.7c-1.4,4.3-5.7,6.5-9.9,7.6c-23.6,6-42.8-17.3-38.1-39.8
	c1.2-5.7,3.7-12.6,8.6-16c2-1.4,3.5-3.8,5.5-5c2.2-1.4,5.6-1.8,8-2.7c5.3-1.8,13-1.5,18.1,1.1C196.2,77,206.7,97.1,192.9,101.5z
	 M185.2,86.9c-0.5-3.3-6.9-3.8-9.4-3.7c-3.8,0-7.4,1.5-10.1,4.1c-2.9,3-2.9,5.2-2.9,9.1c4.4-1.4,9.6-1,13.8-2.8
	C178.1,93,185.6,90,185.2,86.9L185.2,86.9z"/>
<path class="st0" d="M265.9,70.9c-3,0-3.5,0.5-3.9,3.2c-0.4,2.4-0.5,4.8-0.6,7.2c-0.2,3.7-0.6,7.4-1.2,11c-1.4,6.6-3.1,13-3.3,19.7
	c-0.1,7-1.4,13.3-2.3,20.1c-0.4,2.6-1.5,9.1,0.6,11.3c1.6,1.6,4.8,1.1,6.9,1.4c8.6,1.5,6.4,13.3,0.6,17.1c-2.5,1.7-5,1.6-7.9,1.4
	c-3.2-0.3-5,0.2-8.1,0.9c-6.1,1.4-18.9-0.8-14.2-10.1c1.2-2.5,9.7-5.1,6-9c-1.3-1.4-2.9-0.3-4.3,0.2c-3.1,1.3-6.3,2.4-9.6,3.1
	c-16,3.5-27.5-19.1-23-32.2c2.2-6.4,6-12.4,9.9-18c2.2-3.2,4.4-2.7,7.9-4c7.4-2.8,13-5.8,21.1-3.3c2.7,0.8,3.9,1.6,4.4-1.4
	c0.4-1.9,0.2-3.9,0.6-5.8c0.9-4.6,3.3-9,2.2-13.8c-0.5-2.2-2-4.2-2.7-6.5s-0.3-3.5,0.1-6c0.7-4.5,2.6-7.1,7.6-6.8
	c2.7,0.1,5.2,0.8,7.9,0.5c2.4-0.3,4.8-1.2,7.2-0.7C277.7,52.5,276,70.9,265.9,70.9z M238.3,104.8c-4.3,0-10,0.6-14,2.1
	c-7.3,2.8-13,14.5-7.3,21.2c6.2,7.3,16.4-0.9,19.8-6.9c1-2,2.9-3.2,3.9-5.1C242,113.8,243,104.8,238.3,104.8z"/>
<path class="st0" d="M310.1,100.2c-6,3.4-10.9,8.1-17.2,11.2c-2.3,1.1-13.3,4.9-7.7,8.9c1.9,1.1,4,1.8,6.2,2c2,0,6.4-0.4,8.3-1.4
	c3.3-1.8,4.8-6.2,8.8-7.3c5.6-1.5,8.6,5,8.6,9.6c0,5.3-3.7,9.2-8.1,11.8c-9.1,5.6-20.8,6.6-30,0.7c-9.8-6.4-14.7-18.5-13.9-29.9
	c0.3-6.6,2.7-12.9,6.7-18.1c1.2-1.6,1.9-3.8,3.3-5.2c2.1-2.2,5.4-3.7,7.9-5.5c4.8-3.1,10.6-4.4,16.2-3.8c5.4,0.9,9.9,5.5,12.7,9.9
	C316,89.3,316.8,95.6,310.1,100.2z M300.1,88.2c-1.1-3.1-7.6-1.6-9.7-0.8c-3.7,1.2-6.9,3.7-9,7.1c-2.2,3.6-2,5.9-1.2,9.8
	c3.9-2.7,9.1-3.9,12.8-6.9c1.4-1.1,2.7-2.8,4.2-3.9C299.2,91.8,301.1,91.1,300.1,88.2L300.1,88.2z"/>
<path class="st0" d="M349.7,156.6c-1.6,0.9-3.6,2.9-5.2,3.3c-2.8,0.7-6.2-1-9-0.7c-3.8,0.4-6.9,3.9-11.2,3.2c-3.9-0.6-6.9-3.8-9-6.8
	s0.5-9.2,2.6-10.5c2.6-1.6,7.3-1,8.5-4.4c0.8-2.2-0.3-5.4,0-7.9c1.5-11.2-0.6-23.3-1.2-34.5c-0.5-9.8,0-19.5,0.3-29.2
	c0.1-4.4,0.4-8.8,0.3-13.2c0.1-3.1-0.1-6.2-0.4-9.2c-0.5-2.8-0.6-2.4-2.9-2.4c-1.3,0-2.5,0.1-3.8,0.3c-6,1-8.9-2.2-8.9-8.2
	c0-3.6,1.3-5.6,4.5-7.3c2-1.1,4.3-1.6,6.2-2.8c0.8-0.7,1.7-1.2,2.6-1.8c3.1-1.3,7.3-3.2,10.4-1.8c7.4,3.4,4.9,14.3,5.5,21
	c0.4,4.5,0.6,9,0.5,13.5c-0.2,6.7-0.6,13.4-0.6,20.1c0,3.9,0.9,7.6,1,11.5c0.3,11.4,0.3,22.5,1.4,33.9c0.2,2.1,0.7,4.1,0.9,6.2
	c0.3,2.5-0.7,5.3-0.2,7.7s1.8,2.4,3.9,2.8c3.5,0.7,6.6,3,7.4,6.6S351.8,153.5,349.7,156.6z"/>
<path class="st0" d="M391.9,91.3c-2.9,0.1-6.5-5.6-8.5-7.1c-2.8-2.2-6.5-3.1-9.4-0.5c-2.5,2.2-4.9,6.1-1,8.1
	c3.5,1.7,6.5,1.2,9.4,3.9s6.7,5.4,9.3,8.6c9,11.3,2,31.2-12.7,32.2c-1.6,0.2-3.3,0.2-4.9,0c-2-0.2-5-1.4-6.9-0.9
	c-3.9,0.8-4.4,5.8-9.2,5.5c-12.5-0.9-4.9-23.2-0.1-29c1.8-2.1,1.9-1.6,4.6-1c2.4,0.5,3,1,4.4,3.1c1,1.4,1.2,3,2.2,4.3
	c1.2,1.9,1.9,2.4,4,2.2c5.5-0.5,9.6-2.2,7.3-8.6c-1.7-4.7-7.2-6.3-11.3-8.3s-8.5-3.3-10.2-7.9c-2.8-7.4,0.6-16.5,7-20.8
	c4.7-3.2,10.4-3.1,15.5-5.3c4.6-2,2.7-7.6,8.6-8.1c8.6-0.6,7.9,8.6,8.5,14.2c0.3,3.4,2.2,6.5,1.5,10
	C398.9,89.5,395.6,91.2,391.9,91.3z"/>
<path class="st1" d="M34.2,175.2v7c0.7-0.9,1.8-1.4,2.9-1.4c1.2,0,2.4,0.4,3.3,1.2c1,1,1.5,2.3,1.4,3.7c0,1.4-0.5,2.7-1.4,3.7
	c-0.8,0.9-2,1.4-3.2,1.3c-1.2,0.1-2.3-0.5-3-1.4v1.1h-3v-15.3H34.2z M34.7,184.1c-0.4,0.5-0.7,1.1-0.7,1.7c0,0.6,0.3,1.3,0.7,1.7
	c0.5,0.4,1.1,0.7,1.7,0.7c1.3-0.1,2.4-1.2,2.3-2.5c0-0.6-0.3-1.2-0.7-1.6c-0.4-0.4-1-0.7-1.6-0.6C35.8,183.4,35.1,183.6,34.7,184.1z
	"/>
<path class="st1" d="M50.8,181.1h3v9.4h-3v-1.1c-0.6,1-1.6,1.5-2.8,1.4c-1.3,0.1-2.6-0.4-3.5-1.4c-0.9-0.9-1.4-2.2-1.4-3.5
	c0-1.4,0.5-2.8,1.4-3.8c0.9-0.9,2.1-1.3,3.3-1.3c1.1,0,2.2,0.5,3,1.4v-1L50.8,181.1z M47,184.1c-0.9,0.9-1,2.4-0.1,3.4
	c0.5,0.5,1.1,0.7,1.8,0.7c0.6,0,1.1-0.2,1.6-0.6c0.5-0.5,0.7-1.1,0.7-1.8c0-0.6-0.2-1.3-0.7-1.7c-0.5-0.4-1.1-0.7-1.7-0.7
	C48,183.4,47.4,183.7,47,184.1z"/>
<path class="st1" d="M59.2,175.2v7c0.7-0.9,1.7-1.4,2.8-1.4c1.2,0,2.4,0.4,3.3,1.2c1,1,1.5,2.3,1.4,3.7c0,1.4-0.5,2.7-1.4,3.7
	c-0.8,0.9-2,1.4-3.2,1.3c-1.2,0.1-2.3-0.5-3-1.4v1.1h-3v-15.3H59.2z M59.7,184.1c-0.4,0.5-0.7,1.1-0.7,1.7c0,0.6,0.3,1.3,0.7,1.7
	c0.5,0.4,1.1,0.7,1.7,0.7c0.6,0,1.1-0.2,1.6-0.7c0.5-0.4,0.7-1.1,0.7-1.7c0-0.7-0.2-1.3-0.7-1.8c-0.4-0.4-1-0.7-1.6-0.6
	C60.7,183.4,60.1,183.6,59.7,184.1z"/>
<path class="st1" d="M71.5,189.3l-4.5-8.1h3.5l2.6,5l2.6-5h3.4l-7.5,14.1h-3.4L71.5,189.3z"/>
<path class="st1" d="M79.7,183.9h5.4v2.6h-5.4V183.9z"/>
<path class="st1" d="M101.7,186.4h-7c0,0.6,0.2,1.1,0.6,1.6c0.4,0.4,1,0.6,1.6,0.6c0.4,0,0.9-0.1,1.2-0.3c0.3-0.2,0.5-0.5,0.7-0.8
	l2.9,0.3c-0.3,1-0.9,1.8-1.8,2.4c-0.9,0.5-2,0.8-3,0.7c-2.6,0.3-4.8-1.6-5.1-4.2c0-0.2,0-0.5,0-0.8c0-1.4,0.5-2.7,1.4-3.7
	c1-0.9,2.3-1.4,3.6-1.3c1.4-0.1,2.7,0.4,3.7,1.4c0.9,1,1.4,2.4,1.3,3.8L101.7,186.4L101.7,186.4z M98.9,184.5
	c-0.1-0.4-0.3-0.8-0.6-1.1c-0.4-0.4-0.9-0.6-1.4-0.5c-0.6,0-1.1,0.2-1.5,0.6c-0.3,0.3-0.5,0.6-0.5,1L98.9,184.5L98.9,184.5z"/>
<path class="st1" d="M103.6,181.1h3v1.1c0.7-0.9,1.8-1.4,2.9-1.4c1-0.1,1.9,0.3,2.7,0.9c0.7,0.8,1,1.8,0.9,2.8v5.9h-3v-4.8
	c0.1-0.7-0.1-1.3-0.5-1.8c-0.3-0.3-0.7-0.4-1.2-0.4c-0.5,0-0.9,0.2-1.2,0.5c-0.4,0.5-0.6,1.1-0.6,1.8v4.8h-3L103.6,181.1
	L103.6,181.1z"/>
<path class="st1" d="M123.3,175.2v9.4l3.4-3.4h3.9l-4.4,4.3l4.8,5.1h-4l-3.6-4v4h-3v-15.3L123.3,175.2L123.3,175.2z"/>
<path class="st1" d="M133.8,175.4c1,0,1.8,0.8,1.8,1.8c0,1-0.8,1.8-1.8,1.8c-1,0-1.8-0.8-1.8-1.8S132.8,175.4,133.8,175.4
	C133.8,175.4,133.8,175.4,133.8,175.4z M135.3,181.1v9.4h-3v-9.4H135.3z"/>
<path class="st1" d="M137.7,181.1h3v1.1c0.7-0.9,1.8-1.4,2.9-1.4c1.8-0.2,3.4,1,3.6,2.8c0,0.3,0,0.6,0,0.9v5.9h-3v-4.8
	c0.1-0.7-0.1-1.3-0.5-1.8c-0.3-0.3-0.7-0.4-1.2-0.4c-0.5,0-0.9,0.2-1.2,0.5c-0.4,0.5-0.7,1.1-0.6,1.8v4.8h-3L137.7,181.1
	L137.7,181.1z"/>
<path class="st1" d="M159.7,190.5h-3v-1.1c-0.7,1-1.8,1.5-2.9,1.4c-1.2,0-2.4-0.4-3.2-1.3c-1.9-2.1-1.9-5.3,0-7.4
	c0.9-0.8,2.1-1.3,3.3-1.2c1.1-0.1,2.2,0.5,2.9,1.4v-7h3V190.5z M152.9,184.1c-0.5,0.5-0.7,1.1-0.7,1.8c0,0.6,0.2,1.3,0.7,1.7
	c0.4,0.4,1,0.6,1.6,0.6c0.6,0,1.2-0.3,1.7-0.7c0.5-0.4,0.7-1.1,0.7-1.7c0-0.6-0.2-1.2-0.6-1.7c-0.4-0.5-1.1-0.8-1.7-0.7
	C153.9,183.4,153.3,183.6,152.9,184.1z"/>
<path class="st1" d="M171.6,186.4h-7c0,0.6,0.2,1.1,0.6,1.6c0.4,0.4,1,0.6,1.6,0.6c0.4,0,0.9-0.1,1.2-0.3c0.3-0.2,0.5-0.5,0.6-0.8
	l2.9,0.3c-0.3,1-0.9,1.8-1.8,2.4c-0.9,0.5-1.9,0.8-2.9,0.7c-2.8,0.1-5.1-2.1-5.2-4.8c0-1.4,0.5-2.8,1.5-3.8c1-0.9,2.3-1.4,3.6-1.3
	c1.4-0.1,2.7,0.4,3.7,1.4c0.9,1,1.4,2.4,1.3,3.8v0.3L171.6,186.4z M168.8,184.5c-0.1-0.4-0.3-0.8-0.6-1.1c-0.4-0.4-0.9-0.6-1.4-0.5
	c-0.6,0-1.1,0.2-1.5,0.6c-0.3,0.3-0.5,0.6-0.5,1L168.8,184.5L168.8,184.5z"/>
<path class="st1" d="M173.5,181.1h3v1.4c0.3-0.5,0.7-1,1.2-1.3c0.5-0.3,1.1-0.4,1.6-0.4c0.3,0,0.7,0,1,0.1l-0.2,2.8
	c-0.4-0.2-0.9-0.3-1.4-0.3c-0.6,0-1.1,0.2-1.5,0.6c-0.5,0.7-0.8,1.6-0.7,2.5v3.8h-3L173.5,181.1z"/>
<path class="st1" d="M181.4,181.1h3v1.1c0.6-0.9,1.6-1.4,2.6-1.3c0.6,0,1.2,0.1,1.8,0.4c0.5,0.3,0.9,0.8,1.1,1.3
	c0.3-0.5,0.7-0.9,1.2-1.2c0.6-0.4,1.3-0.6,2-0.5c0.9,0,1.9,0.3,2.6,0.9c0.7,0.8,1.1,1.8,1,2.8v5.9h-3v-4.7c0.1-0.6-0.1-1.3-0.4-1.8
	c-0.3-0.3-0.7-0.5-1.1-0.5c-0.5,0-0.9,0.2-1.2,0.6c-0.3,0.6-0.5,1.2-0.5,1.8v4.6h-3v-4.9c0.1-0.6-0.1-1.3-0.5-1.8
	c-0.3-0.3-0.6-0.4-1-0.4c-0.4,0-0.7,0.1-1,0.4c-0.4,0.5-0.6,1.2-0.6,1.9v4.8h-3L181.4,181.1L181.4,181.1z"/>
<path class="st1" d="M208.1,189.3c-1.1,1-2.6,1.5-4.1,1.5c-1.5,0.1-3-0.5-4.1-1.5c-1.8-2-1.8-5,0-6.9c1.1-1,2.6-1.5,4.1-1.5
	c1.5-0.1,3,0.5,4.1,1.5c0.9,0.9,1.4,2.2,1.4,3.5C209.5,187.1,209,188.4,208.1,189.3z M202.3,184.1c-1,1-1,2.5,0,3.5
	c0.5,0.5,1.1,0.7,1.7,0.7c0.6,0,1.2-0.2,1.7-0.7c0.5-0.4,0.8-1.1,0.7-1.8c0-0.7-0.2-1.3-0.7-1.8c-0.4-0.5-1.1-0.7-1.7-0.7
	C203.4,183.4,202.8,183.6,202.3,184.1L202.3,184.1z"/>
<path class="st1" d="M221.5,190.5h-3v-1.1c-0.7,1-1.8,1.5-3,1.4c-1.2,0-2.4-0.4-3.2-1.3c-1.9-2.1-1.9-5.3,0-7.4
	c0.9-0.8,2.1-1.3,3.3-1.2c1.1-0.1,2.2,0.5,2.9,1.4v-7h3L221.5,190.5z M214.7,184.1c-0.5,0.5-0.7,1.1-0.7,1.8c0,0.6,0.2,1.3,0.7,1.7
	c0.4,0.4,1,0.6,1.6,0.6c0.6,0,1.2-0.3,1.7-0.7c0.5-0.4,0.7-1.1,0.7-1.7c0-0.6-0.2-1.2-0.6-1.7c-0.4-0.5-1.1-0.8-1.7-0.7
	C215.7,183.4,215.1,183.7,214.7,184.1z"/>
<path class="st1" d="M233.4,186.4h-7c0,0.6,0.2,1.1,0.6,1.6c0.4,0.4,1,0.6,1.6,0.6c0.4,0,0.9-0.1,1.2-0.3c0.3-0.2,0.5-0.5,0.6-0.8
	l2.9,0.3c-0.3,1-0.9,1.8-1.8,2.4c-0.9,0.5-2,0.8-3,0.7c-2.8,0.1-5.1-2.1-5.2-4.8c0-1.4,0.5-2.8,1.5-3.8c1-0.9,2.3-1.4,3.6-1.3
	c1.4-0.1,2.7,0.4,3.7,1.4c0.9,1,1.4,2.4,1.3,3.8L233.4,186.4L233.4,186.4z M230.6,184.5c-0.1-0.4-0.3-0.8-0.6-1.1
	c-0.4-0.4-0.9-0.6-1.4-0.5c-0.6,0-1.1,0.2-1.5,0.6c-0.3,0.3-0.5,0.6-0.5,1L230.6,184.5L230.6,184.5z"/>
<path class="st1" d="M242.9,173.4h2.6v21h-2.6V173.4z"/>
<path class="st1" d="M258.6,175.2v9.4l3.4-3.4h4l-4.5,4.3l4.8,5.1h-4.1l-3.6-4v4h-3v-15.3L258.6,175.2L258.6,175.2z"/>
<path class="st1" d="M267.5,181.1h3v1.4c0.3-0.5,0.7-1,1.2-1.3c0.5-0.3,1.1-0.4,1.6-0.4c0.3,0,0.7,0,1,0.1l-0.2,2.8
	c-0.4-0.2-0.9-0.3-1.4-0.3c-0.6,0-1.1,0.2-1.5,0.6c-0.5,0.7-0.8,1.6-0.7,2.5v3.8h-3L267.5,181.1L267.5,181.1z"/>
<path class="st1" d="M282.6,181.1h3v9.4h-3v-1.1c-0.6,1-1.6,1.5-2.8,1.4c-1.3,0.1-2.6-0.4-3.5-1.4c-0.9-0.9-1.4-2.2-1.4-3.5
	c0-1.4,0.5-2.8,1.4-3.8c0.9-0.8,2.1-1.3,3.3-1.3c1.2-0.1,2.3,0.5,3,1.4v-1L282.6,181.1z M278.8,184.1c-0.9,0.9-1,2.4-0.1,3.4
	c0.5,0.5,1.1,0.7,1.8,0.7c0.6,0,1.1-0.2,1.6-0.6c0.5-0.5,0.7-1.1,0.7-1.8c0-0.6-0.2-1.3-0.7-1.7c-0.5-0.4-1.1-0.7-1.7-0.7
	C279.8,183.4,279.2,183.7,278.8,184.1L278.8,184.1z"/>
<path class="st1" d="M295.1,181.1h3v9.4h-3v-1.1c-0.6,0.9-1.6,1.5-2.8,1.4c-1.3,0.1-2.6-0.5-3.5-1.4c-0.9-0.9-1.4-2.2-1.4-3.5
	c0-1.4,0.5-2.8,1.4-3.8c0.9-0.8,2.1-1.3,3.3-1.3c1.2-0.1,2.3,0.5,3,1.4v-1L295.1,181.1z M291.3,184.1c-0.9,0.9-1,2.4-0.1,3.4
	c0.5,0.5,1.1,0.7,1.8,0.7c0.6,0,1.1-0.2,1.6-0.6c0.5-0.5,0.7-1.1,0.7-1.8c0-0.6-0.2-1.3-0.7-1.7c-0.5-0.4-1.1-0.7-1.7-0.7
	C292.3,183.4,291.7,183.7,291.3,184.1L291.3,184.1z"/>
<path class="st1" d="M300.4,181.1h3v1.1c0.6-0.9,1.6-1.4,2.6-1.3c0.6,0,1.2,0.1,1.8,0.4c0.5,0.3,0.9,0.8,1.1,1.3
	c0.3-0.5,0.7-0.9,1.2-1.2c0.6-0.4,1.3-0.6,2-0.5c0.9,0,1.9,0.3,2.6,0.9c0.7,0.8,1.1,1.8,1,2.8v5.9h-3v-4.7c0.1-0.6-0.1-1.3-0.4-1.8
	c-0.3-0.3-0.7-0.5-1.1-0.5c-0.5,0-0.9,0.2-1.2,0.6c-0.3,0.5-0.5,1.2-0.5,1.8v4.6h-3v-4.9c0.1-0.6-0.1-1.3-0.5-1.8
	c-0.3-0.3-0.6-0.4-1-0.4c-0.4,0-0.7,0.1-1,0.4c-0.4,0.5-0.6,1.2-0.6,1.9v4.8h-3v-9.4L300.4,181.1z"/>
<path class="st1" d="M325,184.1c-0.6-0.5-1.3-0.7-2-0.7c-1.3-0.1-2.4,1-2.4,2.2c0,0.1,0,0.1,0,0.2c0,0.6,0.2,1.2,0.7,1.7
	c0.5,0.5,1.1,0.8,1.8,0.8c0.7,0,1.4-0.2,1.9-0.7v2.8c-0.7,0.4-1.5,0.6-2.4,0.6c-1.3,0-2.6-0.5-3.6-1.4c-2-2-1.9-5.2,0.1-7.2
	c0,0,0,0,0,0c1-0.9,2.2-1.4,3.5-1.3c0.8,0,1.6,0.2,2.4,0.5L325,184.1L325,184.1z"/>
<path class="st1" d="M334.1,181.1h3v9.4h-3v-1.1c-0.6,0.9-1.6,1.5-2.8,1.4c-1.3,0.1-2.6-0.5-3.5-1.4c-0.9-0.9-1.4-2.2-1.4-3.5
	c0-1.4,0.5-2.8,1.4-3.8c0.9-0.8,2.1-1.3,3.3-1.3c1.1,0,2.2,0.5,2.9,1.4L334.1,181.1L334.1,181.1z M330.3,184.1
	c-0.5,0.4-0.7,1.1-0.7,1.7c0,0.6,0.2,1.3,0.7,1.7c0.5,0.5,1.1,0.7,1.8,0.7c0.6,0,1.1-0.2,1.6-0.6c0.5-0.5,0.7-1.1,0.7-1.8
	c0-0.6-0.2-1.3-0.7-1.7c-0.5-0.4-1.1-0.7-1.7-0.7C331.3,183.4,330.7,183.7,330.3,184.1L330.3,184.1z"/>
<path class="st1" d="M349.6,190.5h-3v-1.1c-0.7,1-1.8,1.5-2.9,1.4c-1.2,0-2.4-0.4-3.2-1.3c-1.9-2.1-1.9-5.3,0-7.4
	c0.9-0.8,2.1-1.3,3.3-1.2c1.1-0.1,2.2,0.5,2.9,1.4v-7h3V190.5z M342.8,184.1c-0.5,0.5-0.7,1.1-0.7,1.8c0,0.6,0.2,1.3,0.7,1.7
	c0.4,0.4,1,0.7,1.6,0.6c0.6,0,1.2-0.3,1.7-0.7c0.5-0.4,0.7-1.1,0.7-1.7c0-0.6-0.2-1.2-0.7-1.7c-0.4-0.5-1.1-0.8-1.7-0.7
	C343.8,183.4,343.2,183.7,342.8,184.1z"/>
<path class="st1" d="M361.5,186.4h-7c0,0.6,0.2,1.1,0.6,1.6c0.4,0.4,1,0.6,1.6,0.6c0.4,0,0.9-0.1,1.2-0.3c0.3-0.2,0.5-0.5,0.6-0.8
	l2.9,0.3c-0.3,1-0.9,1.8-1.8,2.4c-0.9,0.5-1.9,0.7-3,0.7c-2.6,0.3-4.8-1.6-5.1-4.2c0-0.2,0-0.5,0-0.8c0-1.4,0.5-2.7,1.4-3.7
	c1-0.9,2.3-1.4,3.6-1.3c1.4-0.1,2.7,0.4,3.7,1.4c0.9,1,1.4,2.4,1.3,3.8v0.3L361.5,186.4z M358.8,184.5c-0.1-0.4-0.3-0.8-0.6-1.1
	c-0.4-0.4-0.9-0.6-1.4-0.5c-0.6,0-1.1,0.2-1.5,0.6c-0.3,0.3-0.5,0.6-0.5,1L358.8,184.5L358.8,184.5z"/>
<path class="st1" d="M370.5,181.1h3v9.4h-3v-1.1c-0.6,1-1.6,1.5-2.8,1.4c-1.3,0.1-2.6-0.4-3.5-1.4c-0.9-0.9-1.4-2.2-1.4-3.5
	c0-1.4,0.5-2.8,1.4-3.8c0.9-0.8,2.1-1.3,3.3-1.3c1.1,0,2.2,0.5,3,1.4L370.5,181.1L370.5,181.1z M366.6,184.1c-0.9,0.9-1,2.4-0.1,3.4
	c0.5,0.5,1.1,0.7,1.8,0.7c0.6,0,1.1-0.2,1.6-0.6c0.5-0.5,0.7-1.1,0.7-1.8c0-0.6-0.2-1.3-0.7-1.7c-0.5-0.4-1.1-0.7-1.7-0.7
	C367.6,183.4,367.1,183.7,366.6,184.1L366.6,184.1z"/>
<path class="st1" d="M378.8,181.1v5.2c0,0.6,0.2,1.1,0.5,1.5c0.3,0.3,0.8,0.5,1.2,0.5c0.5,0,0.9-0.2,1.3-0.5c0.4-0.4,0.6-1,0.5-1.5
	v-5.2h3v5.4c0.1,1.1-0.3,2.2-1,3c-1,0.9-2.4,1.3-3.7,1.2c-1.4,0.1-2.7-0.4-3.8-1.2c-0.7-0.7-1.1-1.8-1-2.8v-5.6L378.8,181.1z"/>
<path class="st1" d="M393.1,183.5c-0.5-0.3-1.1-0.5-1.6-0.5c-0.3,0-0.6,0.1-0.9,0.3c-0.1,0.1-0.2,0.2-0.2,0.4c0,0.2,0.1,0.3,0.3,0.4
	c0.3,0.1,0.6,0.2,0.9,0.3l0.8,0.3c0.6,0.2,1.1,0.4,1.6,0.8c0.5,0.5,0.8,1.1,0.7,1.8c0,0.9-0.3,1.8-1,2.4c-0.8,0.7-1.9,1.1-3,1.1
	c-1.4,0.1-2.8-0.4-3.9-1.3l1.3-2c0.3,0.3,0.7,0.5,1,0.7c0.4,0.2,0.8,0.3,1.2,0.3c0.3,0,0.6,0,0.9-0.2c0.2-0.1,0.3-0.4,0.3-0.6
	c0-0.2-0.1-0.4-0.3-0.5c-0.3-0.1-0.6-0.3-0.9-0.3l-0.8-0.3c-0.6-0.2-1.1-0.5-1.5-0.9c-0.5-0.4-0.7-1.1-0.6-1.7
	c0-0.8,0.3-1.6,0.9-2.2c0.8-0.7,1.8-1,2.8-0.9c1.1,0,2.2,0.2,3.1,0.8L393.1,183.5z"/>
<path class="st2" d="M147.4,35.4l10-11c0,0-0.5-4.6-3.8-6s0.9-4.6,3.1-2.6c1.1,0.9,2.1,1.9,3.1,3c0,0,4.4-8.4,5.9-8.6
	s4.4-0.1-0.9,7.1c0,0,8.1-5.6,8.9-2.6s-6,4.8-6,4.8s8.9-2.4,9,0.2s-7.5,3.2-7.5,3.2s-2.5,4.5-5.5,4.2l-14.2,18.1"/>
<path class="st3" d="M132.2,0c0,0,7.9,10.1,0.3,15.9c0,0,2,6.2,8.6,6C141.1,21.9,151.4,5.3,132.2,0z"/>
<path class="st3" d="M90.1,10c0,0-3.7,12.3,5.5,14.9c0,0,0.4,6.5-5.9,8.8C89.8,33.6,74.2,21.9,90.1,10z"/>
<path class="st4" d="M113.1,81.7c0,0-7.5,2-2.4,9c0,0-12.3,1.1-12.1,5.1s8.8,5.9,15.1,3.4s5-5.9,2.6-9.3c-3.3-4.8,6.7-5.6,6.7-5.6
	S115.2,81.2,113.1,81.7z"/>
<path class="st4" d="M145.5,66.2c0,0,8.5-5.2,7.3,4.1c0,0,11.3-5.1,13.1-1.6s-4.7,9.5-11.5,10.4s-7.3-2.7-6.9-6.8s-6.3,3-6.3,3
	S143.4,66.8,145.5,66.2z"/>
<path class="st4" d="M92.8,54.5c0,0-15.2,8.4-10.5,15.3s14,4.8,14,4.8s-0.4,6.3,5.3,4.1c4.2-1.6,7-2.9,3.3-6.7
	c-5.6-5.6-16.1-6.2-16.1-6.2l7.3-3.8L92.8,54.5z"/>
<path class="st5" d="M148.6,35.7c-4.7-22.7-19.2-22.1-35.3-18.2s-28.5,9.8-23,32.4s23,37.9,39.1,33.7
	C143.1,80,153.6,60.1,148.6,35.7z"/>
<path d="M123.5,59.7c7.3-1.7,11.9-8.9,10.2-16.2L107,49.9c1.8,7.2,9.1,11.6,16.3,9.8C123.4,59.7,123.5,59.7,123.5,59.7z"/>
<path class="st6" d="M113.1,48.5l2.7,3.5c0.3,0.4,0.8,0.4,1.1,0.2c0.2-0.1,0.3-0.3,0.3-0.5l0.7-4.4L113.1,48.5z"/>
<path class="st6" d="M117.9,47.3l2.7,3.5c0.3,0.3,0.8,0.4,1.2,0.1c0.1-0.1,0.2-0.2,0.3-0.4l0.7-4.4L117.9,47.3z"/>
<path class="st6" d="M122.8,46.1l2.7,3.5c0.3,0.4,0.8,0.4,1.1,0.2c0.2-0.1,0.3-0.3,0.3-0.5l0.7-4.3L122.8,46.1z"/>
<circle class="st6" cx="107" cy="36" r="8.8"/>
<ellipse transform="matrix(0.9715 -0.2368 0.2368 0.9715 -5.8049 26.4785)" cx="107.3" cy="37.4" rx="5.4" ry="5.6"/>
<circle class="st6" cx="108.3" cy="35" r="2.1"/>
<circle class="st6" cx="106.4" cy="38.2" r="1.1"/>
<circle class="st6" cx="127.2" cy="31" r="8.8"/>
<ellipse transform="matrix(0.8915 -0.4531 0.4531 0.8915 -0.8792 61.3098)" cx="127.5" cy="32.5" rx="5.4" ry="5.6"/>
<circle class="st6" cx="128.6" cy="30.1" r="2.1"/>
<circle class="st6" cx="126.6" cy="33.3" r="1.1"/>
<ellipse class="st7" cx="146" cy="53.1" rx="2.1" ry="4.9"/>
<ellipse transform="matrix(3.821345e-02 -0.9993 0.9993 3.821345e-02 77.6736 198.0733)" class="st7" cx="141.7" cy="58.7" rx="3" ry="1.3"/>
<ellipse transform="matrix(0.3769 -0.9263 0.9263 0.3769 30.3232 173.6101)" class="st7" cx="144.2" cy="64.3" rx="3.3" ry="1.2"/>
<path class="st8" d="M244.1,46.1c0,0,8.3,4,10.8,2.9c2.5-1.1,6.4-0.8,7.3-0.3s2.7,1.4,1.4,2.8s-7.5,1.8-7,3.1s1.8,5.2,0,4.8
	s-1.4-3-3.5-4s-6.8-1.8-7.4-1.5S244.1,46.1,244.1,46.1z"/>
<path class="st8" d="M206.8,106.7L206.8,106.7c-3.5-0.1,1.8-4.3,2.7-8.1l-6.8-26.3l13.7-1.2l-3,29
	C213.3,103.9,210.3,106.9,206.8,106.7z"/>
<path class="st8" d="M236.1,92L236.1,92c3.1-1.6-2.8-2-4.1-4.3l-1.4-19.9l-13.3,5.7l10.9,17.2C229.5,93,233.1,93.6,236.1,92z"/>
<path class="st8" d="M184.9,55.4c0,0-1.3,11.1-5,12.1s-7.3-0.1-8.8,2.9c-1.5,3.2,11.8,0.5,12.6,3.1s5.1,2.9,4,0.3s-1.7-4.4,1.1-10.2
	L184.9,55.4z"/>
<ellipse class="st7" cx="214.9" cy="50.4" rx="31.5" ry="31.9"/>
<path class="st6" d="M204.4,66.2l1.1-5c0.1-0.5-0.1-1-0.6-1.1c-0.3-0.1-0.5,0-0.8,0.1l-4.4,2.7L204.4,66.2z"/>
<path class="st6" d="M225.3,66.2l-1.1-5c-0.1-0.5,0.2-1,0.6-1.1c0.3-0.1,0.5,0,0.7,0.1l4.4,2.7L225.3,66.2z"/>
<ellipse class="st6" cx="214.9" cy="43" rx="15.4" ry="15.6"/>
<ellipse transform="matrix(0.9327 -0.3606 0.3606 0.9327 -1.9179 80.7887)" cx="215.5" cy="45.5" rx="9.6" ry="10"/>
<circle class="st6" cx="213.8" cy="47.1" r="2"/>
<path class="st9" d="M193.2,47c-0.3,12,9.2,21.9,21.2,22.2c12,0.3,21.9-9.2,22.2-21.2c0-0.3,0-0.6,0-0.9"/>
<ellipse class="st10" cx="193.2" cy="48.2" rx="6" ry="6.1"/>
<ellipse class="st10" cx="236.6" cy="48.2" rx="6" ry="6.1"/>
<path class="st2" d="M206.3,24l8.9-5.3c1.2-0.7,1.5-2.2,0.8-3.4c-0.2-0.3-0.5-0.6-0.8-0.8l-8.9-5.3c-1.1-0.7-2.6-0.3-3.3,0.8
	c-0.2,0.4-0.4,0.8-0.4,1.3v10.6c0,1.4,1.1,2.4,2.5,2.4C205.6,24.3,206,24.2,206.3,24z"/>
<path class="st2" d="M223.4,9.3l-8.9,5.3c-1.2,0.7-1.5,2.2-0.8,3.3c0.2,0.3,0.5,0.6,0.8,0.8l8.9,5.3c1.1,0.7,2.6,0.3,3.3-0.8
	c0.2-0.4,0.4-0.8,0.3-1.3V11.5c0-1.3-1-2.5-2.3-2.5C224.3,8.9,223.8,9.1,223.4,9.3z"/>
<circle class="st5" cx="214.9" cy="16.7" r="3.9"/>
<circle class="st6" cx="217.3" cy="41.2" r="3.7"/>
</svg>
