<?xml version="1.0" encoding="UTF-8"?>
<svg id="Laag_1" data-name="Laag 1" xmlns="http://www.w3.org/2000/svg" width="1600" height="800" version="1.1" viewBox="0 0 1600 800">
  <defs>
    <style>
      .cls-1 {
        fill: #5ec4e8;
      }

      .cls-1, .cls-2, .cls-3, .cls-4, .cls-5, .cls-6, .cls-7, .cls-8, .cls-9, .cls-10 {
        stroke-width: 0px;
      }

      .cls-2 {
        fill: #00b3df;
      }

      .cls-3 {
        fill: #f088b6;
      }

      .cls-4 {
        fill: #000;
      }

      .cls-11 {
        fill: #e8ede8;
        stroke: #61686e;
        stroke-width: 2px;
      }

      .cls-11, .cls-12 {
        stroke-miterlimit: 10;
      }

      .cls-5 {
        fill: #61686e;
      }

      .cls-12 {
        fill: none;
        stroke: #e8318a;
        stroke-width: 3.2px;
      }

      .cls-6 {
        fill: #fff;
      }

      .cls-7 {
        fill: #00aadb;
      }

      .cls-8 {
        fill: #b1dff3;
      }

      .cls-9 {
        fill: #f5b5d2;
      }

      .cls-10 {
        fill: #e6007e;
      }
    </style>
  </defs>
  <g>
    <path class="cls-7" d="M907.6,602.4l16.9-18.5s-.8-7.8-6.4-10.1c-5.6-2.3,1.5-7.7,5.2-4.3,1.8,1.6,3.6,3.3,5.2,5,0,0,7.4-14.2,9.9-14.5s7.4,0-1.5,11.9c0,0,13.6-9.5,15-4.4,1.5,5-10.1,8-10.1,8,0,0,15-3.9,15.2.4.1,4.3-12.6,5.4-12.6,5.4,0,0-4.2,7.5-9.3,7.1l-23.9,30.5"/>
    <path class="cls-8" d="M882,542.6s13.4,17,.4,26.7c0,0,3.4,10.4,14.5,10.1,0,0,17.5-27.8-15-36.8Z"/>
    <path class="cls-8" d="M811.2,559.5s-6.3,20.7,9.3,25c0,0,.7,11-9.9,14.8.1,0-26.2-19.7.7-39.8Z"/>
    <path class="cls-2" d="M849.9,680.2s-12.7,3.4-3.9,15.2c0,0-20.7,1.9-20.4,8.6.3,6.7,14.8,9.9,25.5,5.7,10.7-4.2,8.4-9.9,4.4-15.6-5.5-8,11.2-9.3,11.2-9.3,0,0-13.2-5.4-16.7-4.5Z"/>
    <path class="cls-2" d="M904.4,654.1s14.3-8.7,12.3,6.9c0,0,19-8.6,22.1-2.6,3.1,6-8,16-19.3,17.5-11.4,1.5-12.3-4.5-11.6-11.5.7-6.9-10.6,5-10.6,5,0,0,3.5-14.4,7.1-15.4Z"/>
    <path class="cls-2" d="M815.6,634.4s-25.6,14.1-17.7,25.9,23.6,8,23.6,8c0,0-.7,10.7,8.9,6.9,7.1-2.8,11.8-5,5.6-11.2-9.3-9.5-27.2-10.4-27.2-10.4l12.3-6.4-5.6-12.8Z"/>
    <path class="cls-1" d="M909.6,602.8c-8-38.3-32.3-37.2-59.4-30.7-27.1,6.5-48,16.6-38.8,54.5,9.3,37.9,38.7,63.9,65.9,56.8,23.1-6.1,40.8-39.5,32.3-80.6Z"/>
    <path class="cls-4" d="M867.5,643.2c12.3-2.8,20-15,17.2-27.4l-45.1,10.9c3.1,12.2,15.3,19.6,27.5,16.5h.3Z"/>
    <path class="cls-6" d="M849.9,624.3l4.5,5.9c.4.6,1.3.7,1.9.3.3-.2.4-.5.5-.8l1.2-7.4-8.2,2Z"/>
    <path class="cls-6" d="M858,622.3l4.5,6c.5.6,1.4.7,2,.1.2-.1.4-.4.4-.7l1.2-7.4-8.2,1.9Z"/>
    <path class="cls-6" d="M866.2,620.3l4.5,6c.4.6,1.3.7,1.9.3.3-.2.4-.5.5-.8l1.2-7.3-8.2,1.8Z"/>
    <circle class="cls-6" cx="839.6" cy="603.2" r="14.8"/>
    <ellipse class="cls-4" cx="840.1" cy="605.7" rx="9.1" ry="9.5" transform="translate(-119.5 216.2) rotate(-13.7)"/>
    <circle class="cls-6" cx="841.8" cy="601.6" r="3.5"/>
    <circle class="cls-6" cx="838.6" cy="607.1" r="1.9"/>
    <circle class="cls-6" cx="873.7" cy="595" r="14.8"/>
    <ellipse class="cls-4" cx="874.2" cy="597.4" rx="9.1" ry="9.5" transform="translate(-175.8 460.9) rotate(-26.9)"/>
    <circle class="cls-6" cx="876" cy="593.3" r="3.5"/>
    <circle class="cls-6" cx="872.5" cy="598.8" r="1.9"/>
    <ellipse class="cls-3" cx="905.3" cy="632.2" rx="3.5" ry="8.3"/>
    <ellipse class="cls-3" cx="898.1" cy="641.5" rx="5" ry="2.2" transform="translate(222.7 1514.4) rotate(-87.8)"/>
    <ellipse class="cls-3" cx="902.3" cy="650.9" rx="5.5" ry="2" transform="translate(-40.7 1241.3) rotate(-67.9)"/>
    <path class="cls-10" d="M1019.7,613s12.9,8.5,17.4,7.3c4.5-1.2,10.9,0,12.3,1.1,1.4,1.1,4.2,3,1.7,4.9s-12.9,1.4-12.4,3.7c.5,2.3,1.8,9.1-1.1,8s-1.6-5.3-4.9-7.4c-3.3-2.1-11-4.5-12-4.2-1.1.4-1-13.2-1-13.2Z"/>
    <path class="cls-10" d="M943.6,705.6h0c-5.8-1,3.9-6.7,6.4-12.9l-5.4-45.5,23.1,1.2-11.6,47.7c-1.1,6.4-6.8,10.7-12.5,9.6Z"/>
    <path class="cls-10" d="M995.8,687.8h0c5.5-2-4.2-3.9-5.8-8.2l2.1-33.5-23.5,6.5,14.3,31.1c1.6,4.2,7.3,6.1,12.9,4.1Z"/>
    <path class="cls-10" d="M918.6,615.1s-4.7,18.2-11.1,19.1c-6.4.9-12.3-1.8-15.3,2.8-3.2,5,19.6,3.4,20.4,8,.8,4.6,7.7,6.1,6.6,1.3-1.2-4.7-1.8-7.7,4.1-16.7l-4.7-14.5Z"/>
    <ellipse class="cls-3" cx="969.9" cy="613.6" rx="53.7" ry="53.1" transform="translate(230.9 1491.6) rotate(-82.2)"/>
    <path class="cls-6" d="M948.8,637.6l3-8.1c.4-.7,0-1.7-.7-2-.4-.2-.9-.1-1.3,0l-8,3.5,7,6.6Z"/>
    <path class="cls-6" d="M983.7,642.3l-.7-8.6c-.1-.8.5-1.6,1.3-1.8.4,0,.9,0,1.2.4l6.7,5.5-8.5,4.5Z"/>
    <ellipse class="cls-6" cx="971.6" cy="601.1" rx="26.3" ry="25.9" transform="translate(244.6 1482.5) rotate(-82.2)"/>
    <ellipse class="cls-4" cx="972" cy="605.5" rx="16.1" ry="16.9" transform="translate(-113.7 241.1) rotate(-13.4)"/>
    <circle class="cls-6" cx="968.8" cy="607.8" r="3.4"/>
    <path class="cls-12" d="M934.4,602.9c-3.1,19.9,10.4,38.6,30.4,41.8,19.9,3.1,38.6-10.4,41.8-30.4,0-.5.1-1,.2-1.5"/>
    <ellipse class="cls-9" cx="934.1" cy="604.9" rx="10.2" ry="10.2" transform="translate(208.5 1448.6) rotate(-82.2)"/>
    <ellipse class="cls-9" cx="1006.6" cy="614.8" rx="10.2" ry="10.2" transform="translate(261.3 1529) rotate(-82.2)"/>
    <path class="cls-7" d="M961.6,567.5l16.1-6.9c2.1-.9,3.1-3.4,2.1-5.4-.3-.6-.7-1.2-1.2-1.5l-13.7-10.9c-1.8-1.4-4.3-1.2-5.7.6-.5.6-.8,1.3-.9,2.1l-2.4,17.7c-.3,2.3,1.3,4.3,3.5,4.7.7,0,1.5-.1,2.1-.4Z"/>
    <path class="cls-7" d="M993.5,546.9l-16.1,6.9c-2.1.9-3.1,3.3-2.2,5.4.3.7.7,1.2,1.2,1.6l13.7,10.9c1.8,1.4,4.3,1.2,5.7-.6.5-.6.8-1.3.9-2.1l2.4-17.6c.4-2.2-1.1-4.3-3.4-4.7-.8-.1-1.6,0-2.3.2Z"/>
    <circle class="cls-1" cx="977.6" cy="557.3" r="6.6"/>
    <circle class="cls-6" cx="976" cy="598.7" r="6.2"/>
  </g>
  <g>
    <path class="cls-11" d="M284.1,384c0,123.1,120.5,223.2,268.6,223.2,38.8,0,76.5-6.9,112-20.5l94.4,63.4c1.9,1.3,4.1,1.9,6.2,1.9s5.3-.9,7.4-2.8c3.8-3.4,4.9-8.9,2.6-13.4l-43.1-86.3c56.7-42.4,89.1-102.2,89.1-165.5,0-123.1-120.5-223.2-268.6-223.2-148.1,0-268.6,100.1-268.6,223.2Z"/>
    <g>
      <path class="cls-5" d="M335.1,305h4.2v33.2h-4.2v-33.2ZM354.1,305h5.7l-21.2,21.8v-5.8l15.5-16ZM344.6,319l16.1,19.2h-5.4l-13.7-16.5,3-2.7Z"/>
      <path class="cls-5" d="M376.3,338.9c-2.3,0-4.3-.5-6.1-1.5-1.8-1-3.2-2.5-4.2-4.5-1-2-1.5-4.4-1.5-7.3s.5-5.3,1.5-7.3c1-2,2.4-3.4,4.2-4.5s3.8-1.5,6.1-1.5,4.3.5,6,1.5,3.2,2.5,4.2,4.5c1,2,1.5,4.4,1.5,7.3s-.5,5.3-1.5,7.3c-1,2-2.4,3.5-4.2,4.5-1.8,1-3.8,1.5-6,1.5ZM376.2,335.3c1.6,0,3-.4,4.2-1.2,1.1-.8,2-1.9,2.6-3.3.6-1.4.9-3.2.9-5.2,0-3-.6-5.4-1.9-7.1-1.3-1.7-3.1-2.6-5.6-2.6s-3.1.4-4.2,1.2-2,1.9-2.6,3.4c-.6,1.5-.9,3.2-.9,5.2,0,3,.6,5.3,1.9,7.1,1.3,1.7,3.1,2.6,5.6,2.6Z"/>
      <path class="cls-5" d="M396.1,338.2v-25.3h3.5l.5,5.1c.8-1.8,1.9-3.2,3.3-4.2,1.4-1,3.2-1.5,5.2-1.5s3.7.4,5.1,1.3c1.4.9,2.5,2.2,3.3,3.8.8,1.7,1.1,3.6,1.1,5.9v14.9h-4.1v-14.9c0-2.4-.6-4.3-1.7-5.5-1.2-1.3-2.7-1.9-4.7-1.9s-2.8.4-3.9,1.2c-1.1.8-2,2-2.6,3.6-.6,1.5-.9,3.4-.9,5.5v11.9h-4.1ZM431.6,338.2v-14.9c0-2.4-.6-4.3-1.7-5.5-1.2-1.3-2.7-1.9-4.7-1.9s-4,.9-5.3,2.7-1.8,4.2-1.8,7.3h-1.9c0-2.3.2-4.3.7-6,.4-1.7,1.1-3.1,2-4.3s1.9-2,3.1-2.6c1.2-.6,2.6-.8,4.2-.8s3.7.4,5.1,1.3c1.4.9,2.5,2.2,3.3,3.8.8,1.7,1.1,3.6,1.1,5.9v14.9h-4.1Z"/>
      <path class="cls-5" d="M455.3,351.2c-1.2,0-2.4-.2-3.5-.5-1.1-.3-2.3-.8-3.5-1.5l.2-3.6c1,.6,2.1,1.1,3.1,1.4,1,.4,2,.5,3.1.5s2.6-.5,3.4-1.4c.8-1,1.2-2.4,1.2-4.4v-28.9h4.1v29c0,3.3-.7,5.8-2.2,7.2-1.5,1.5-3.4,2.2-5.8,2.2ZM461.2,307c-.8,0-1.5-.2-2-.7-.5-.5-.7-1.1-.7-1.9s.2-1.4.7-1.9c.5-.5,1.1-.7,2-.7s1.5.2,2,.7c.5.5.7,1.1.7,1.9s-.2,1.4-.7,1.9-1.2.7-2,.7Z"/>
      <path class="cls-5" d="M483.4,338.9c-2.2,0-4.1-.6-5.9-1.7-1.7-1.1-3.1-2.7-4.1-4.7-1-2-1.5-4.3-1.5-6.9s.5-5.1,1.5-7.1c1-2,2.3-3.5,4.1-4.6s3.7-1.6,5.9-1.6,3.6.4,4.9,1.2c1.4.8,2.4,1.8,3.3,3.1.8,1.3,1.4,2.8,1.7,4.5.3,1.7.4,3.4.3,5.2h-18.3v-2.5h15.6l-1.2.8c0-1,0-2.1-.2-3.1s-.5-2-.9-2.9c-.5-.9-1.1-1.6-1.9-2.1-.8-.5-1.9-.8-3.2-.8s-3,.4-4.1,1.2c-1.1.8-1.9,1.9-2.5,3.3-.5,1.3-.8,2.8-.8,4.4v1.7c0,1.8.3,3.3.8,4.7.5,1.4,1.3,2.5,2.4,3.3,1.1.8,2.4,1.2,4.1,1.2s3-.4,4-1.2c1.1-.8,1.7-2,1.9-3.5h4.3c-.3,1.7-.9,3.1-1.8,4.3s-2.1,2.1-3.6,2.8c-1.4.7-3.1,1-4.9,1Z"/>
      <path class="cls-5" d="M523.3,351.2c-2.6,0-4.8-.4-6.7-1.1-1.9-.7-3.4-1.7-4.4-2.9-1-1.2-1.6-2.6-1.6-4.1s.7-3.4,2.2-4.5c1.4-1,3.3-1.5,5.6-1.5l2.3,1.4c-1.9,0-3.4.4-4.4,1.2-1,.8-1.6,1.9-1.6,3.3s.7,2.5,2.2,3.5c1.5,1,3.6,1.4,6.5,1.4s4-.3,5.6-.9c1.6-.6,2.8-1.4,3.7-2.4.9-1,1.3-2,1.3-3.2s-.3-1.5-.9-2-1.5-.9-2.7-.9h-9.8c-1.7,0-3.2-.3-4.4-.8-1.2-.5-2.2-1.2-2.9-2-.7-.8-1-1.8-1-2.8s.3-2,.9-2.7c.6-.7,1.4-1.3,2.3-1.7,1-.4,2-.6,3.1-.6l.8,1.5c-.5,0-1.1.1-1.6.4-.5.2-1,.6-1.3,1.1-.4.5-.5,1.1-.5,1.8s.3,1.5,1,2c.7.5,1.9.8,3.6.8h9.8c2.4,0,4.3.5,5.6,1.5s2,2.4,2,4.2-.6,3.2-1.8,4.8c-1.2,1.5-2.9,2.8-5.1,3.8s-4.8,1.5-7.9,1.5ZM524,330.8c-1.9,0-3.7-.4-5.2-1.2-1.6-.8-2.8-1.9-3.7-3.3-.9-1.4-1.4-3-1.4-4.8s.5-3.5,1.4-4.9c.9-1.4,2.1-2.5,3.7-3.2s3.3-1.1,5.2-1.1,3.6.4,5.1,1.1c1.5.8,2.8,1.8,3.7,3.2.9,1.4,1.4,3,1.4,4.9s-.5,3.4-1.4,4.8c-.9,1.4-2.1,2.5-3.7,3.3-1.5.8-3.3,1.2-5.1,1.2ZM524,327.9c1.9,0,3.4-.6,4.5-1.8,1.1-1.2,1.6-2.7,1.6-4.5s-.5-3.4-1.6-4.5c-1.1-1.2-2.6-1.7-4.5-1.7s-3.4.6-4.5,1.7c-1.1,1.2-1.7,2.7-1.7,4.5s.6,3.3,1.7,4.5c1.1,1.2,2.6,1.8,4.5,1.8ZM532.3,316.3l-2-.8c0-1.5.3-2.8.9-3.9s1.4-2,2.5-2.6c1.1-.6,2.4-.9,3.8-.9l-.3,4.1c-1.6,0-2.8.3-3.6,1-.8.7-1.3,1.7-1.3,3.2Z"/>
      <path class="cls-5" d="M551.2,338.9c-2.1,0-3.8-.4-5.2-1.1-1.4-.7-2.4-1.7-3-2.9-.7-1.2-1-2.4-1-3.7s.4-3.1,1.3-4.2c.9-1.1,2-1.9,3.5-2.4,1.5-.5,3.1-.8,5-.8s2.6.1,4,.4c1.3.3,2.6.6,3.9,1.1v2.6c-1.1-.4-2.3-.8-3.6-1-1.3-.2-2.6-.4-3.7-.4-1.7,0-3.1.3-4.3,1s-1.7,1.9-1.7,3.6.4,2.3,1.3,3.2c.9.9,2.3,1.3,4.3,1.3s2.6-.3,3.7-1c1.1-.6,2-1.4,2.6-2.4.6-1,1-1.9,1-2.9h1c0,1.7-.4,3.3-1.1,4.7-.7,1.4-1.8,2.6-3.1,3.5-1.4.9-3,1.3-4.9,1.3ZM559.9,338.2l-.5-5.6v-10.8c0-2.3-.5-3.9-1.5-4.9-1-1-2.4-1.5-4.4-1.5s-2.1.2-3,.5c-.9.3-1.6.8-2.1,1.5-.5.7-.8,1.5-.8,2.6h-4.6c0-1.8.4-3.3,1.3-4.4.9-1.1,2.1-1.9,3.7-2.4,1.6-.5,3.4-.8,5.4-.8s3.7.3,5.2,1c1.5.7,2.7,1.7,3.5,3.1.8,1.4,1.3,3.3,1.3,5.5v16.3h-3.6Z"/>
      <path class="cls-5" d="M572.6,312.9h4.1v15.8c0,2.1.5,3.7,1.5,4.8,1,1.1,2.5,1.6,4.4,1.6s3-.4,4.1-1.3c1.2-.8,2.1-2,2.7-3.5.6-1.5,1-3.2,1-5.1h1.5c0,2.8-.4,5.3-1.2,7.3-.8,2-2,3.5-3.5,4.6-1.5,1.1-3.2,1.6-5.2,1.6s-3.6-.4-5-1.1c-1.4-.7-2.5-1.8-3.3-3.2-.8-1.4-1.2-3.3-1.2-5.5v-16.1ZM590.5,312.9h4.1v25.3h-4.1v-25.3Z"/>
      <path class="cls-5" d="M600.9,313h4.3l6.5,21.1h-.5l6.3-19.9h3.4l6.2,19.9h-.5l6.4-21.1h4.1l-8.3,25.3h-4l-6.1-18.7h.6l-6.1,18.7h-4l-8.4-25.3Z"/>
      <path class="cls-5" d="M665,338.9c-2.2,0-4.1-.6-5.9-1.7-1.7-1.1-3.1-2.7-4.1-4.7-1-2-1.5-4.3-1.5-6.9s.5-5.1,1.5-7.1c1-2,2.3-3.5,4.1-4.6s3.7-1.6,5.9-1.6,3.6.4,4.9,1.2c1.4.8,2.4,1.8,3.3,3.1.8,1.3,1.4,2.8,1.7,4.5.3,1.7.4,3.4.3,5.2h-18.3v-2.5h15.6l-1.2.8c0-1,0-2.1-.2-3.1s-.5-2-.9-2.9c-.5-.9-1.1-1.6-1.9-2.1-.8-.5-1.9-.8-3.2-.8s-3,.4-4.1,1.2c-1.1.8-1.9,1.9-2.5,3.3-.5,1.3-.8,2.8-.8,4.4v1.7c0,1.8.3,3.3.8,4.7.5,1.4,1.3,2.5,2.4,3.3,1.1.8,2.4,1.2,4.1,1.2s3-.4,4-1.2c1.1-.8,1.7-2,1.9-3.5h4.3c-.3,1.7-.9,3.1-1.8,4.3s-2.1,2.1-3.6,2.8c-1.4.7-3.1,1-4.9,1Z"/>
      <path class="cls-5" d="M692.1,338.9c-2.2,0-4.1-.6-5.9-1.7-1.7-1.1-3.1-2.7-4.1-4.7-1-2-1.5-4.3-1.5-6.9s.5-5.1,1.5-7.1c1-2,2.3-3.5,4.1-4.6s3.7-1.6,5.9-1.6,3.6.4,4.9,1.2c1.4.8,2.4,1.8,3.3,3.1.8,1.3,1.4,2.8,1.7,4.5.3,1.7.4,3.4.3,5.2h-18.3v-2.5h15.6l-1.2.8c0-1,0-2.1-.2-3.1s-.5-2-.9-2.9c-.5-.9-1.1-1.6-1.9-2.1-.8-.5-1.9-.8-3.2-.8s-3,.4-4.1,1.2c-1.1.8-1.9,1.9-2.5,3.3-.5,1.3-.8,2.8-.8,4.4v1.7c0,1.8.3,3.3.8,4.7.5,1.4,1.3,2.5,2.4,3.3,1.1.8,2.4,1.2,4.1,1.2s3-.4,4-1.2c1.1-.8,1.7-2,1.9-3.5h4.3c-.3,1.7-.9,3.1-1.8,4.3s-2.1,2.1-3.6,2.8c-1.4.7-3.1,1-4.9,1Z"/>
      <path class="cls-5" d="M710.5,338.2v-25.3h3.5l.6,5.8v19.5h-4.1ZM728.4,338.2v-14.9c0-2.4-.6-4.3-1.7-5.5-1.2-1.3-2.7-1.9-4.7-1.9s-2.8.4-3.9,1.2c-1.1.8-2,2-2.6,3.6-.6,1.5-.9,3.4-.9,5.5h-1.6c0-2.9.4-5.5,1.2-7.5.8-2.1,1.9-3.7,3.4-4.8,1.5-1.1,3.3-1.7,5.4-1.7s3.7.4,5.1,1.3c1.4.9,2.5,2.2,3.3,3.8.8,1.7,1.1,3.6,1.1,5.9v14.9h-4.1Z"/>
      <path class="cls-5" d="M751.5,338.9c-2.5,0-4.5-.3-6.1-1s-2.9-1.7-3.7-2.9c-.8-1.2-1.3-2.6-1.3-4.2h4c0,1.6.7,2.8,1.9,3.6,1.2.8,2.8,1.2,4.9,1.2s2.1-.2,3-.5c.9-.4,1.6-.8,2.2-1.5.5-.6.8-1.3.8-2.1s-.4-1.8-1.1-2.3c-.7-.6-1.9-1.1-3.5-1.5l-4.9-1.6c-2.1-.7-3.8-1.6-4.9-2.8-1.1-1.2-1.7-2.6-1.7-4.2s.9-3.7,2.7-4.9c1.8-1.2,4.2-1.9,7.1-1.9s5.5.6,7.2,1.9c1.7,1.3,2.6,2.9,2.7,4.8h-4.1c-.2-1.1-.7-2-1.7-2.5-1-.6-2.3-.9-4.1-.9s-3,.4-4,1.1-1.4,1.6-1.4,2.6c0,1.7,1.5,3,4.5,3.9l5,1.7c2.2.7,3.8,1.5,5,2.6,1.2,1.1,1.7,2.4,1.7,4s-.4,2.5-1.2,3.6-2,2-3.5,2.7-3.3,1.1-5.4,1.1Z"/>
      <path class="cls-5" d="M388.5,401.7v-36.1h4.1v36.1h-4.1ZM391.9,387.2l12.9-10.8h5.8l-18.7,15.2v-4.4ZM406.1,401.7l-12-16,4.2-.7,12.9,16.7h-5.1Z"/>
      <path class="cls-5" d="M420.6,370.4c-.8,0-1.5-.2-2-.7s-.7-1.1-.7-1.9.2-1.4.7-1.9c.5-.5,1.2-.7,2-.7s1.5.2,2,.7c.5.5.7,1.1.7,1.9s-.2,1.4-.7,1.9c-.5.5-1.2.7-2,.7ZM418.5,401.7v-25.3h4.1v25.3h-4.1Z"/>
      <path class="cls-5" d="M431.2,414.7c-1.2,0-2.4-.2-3.5-.5-1.1-.3-2.3-.8-3.5-1.5l.2-3.6c1,.6,2.1,1.1,3.1,1.4,1,.4,2,.5,3.1.5s2.6-.5,3.4-1.4c.8-1,1.2-2.4,1.2-4.4v-28.9h4.1v29c0,3.3-.7,5.8-2.2,7.2-1.5,1.5-3.4,2.2-5.8,2.2ZM437.1,370.4c-.8,0-1.5-.2-2-.7-.5-.5-.7-1.1-.7-1.9s.2-1.4.7-1.9c.5-.5,1.1-.7,2-.7s1.5.2,2,.7c.5.5.7,1.1.7,1.9s-.2,1.4-.7,1.9-1.2.7-2,.7Z"/>
      <path class="cls-5" d="M450.6,401.7v-36.1h4.1v36.1h-4.1ZM454.1,387.2l12.9-10.8h5.8l-18.7,15.2v-4.4ZM468.2,401.7l-12-16,4.2-.7,12.9,16.7h-5.1Z"/>
      <path class="cls-5" d="M489.1,402.3c-2.2,0-4.1-.6-5.9-1.7-1.7-1.1-3.1-2.7-4.1-4.7-1-2-1.5-4.3-1.5-6.9s.5-5.1,1.5-7.1c1-2,2.3-3.5,4.1-4.6s3.7-1.6,5.9-1.6,3.6.4,4.9,1.2c1.4.8,2.4,1.8,3.3,3.1.8,1.3,1.4,2.8,1.7,4.5.3,1.7.4,3.4.3,5.2h-18.3v-2.5h15.6l-1.2.8c0-1,0-2.1-.2-3.1s-.5-2-.9-2.9c-.5-.9-1.1-1.6-1.9-2.1-.8-.5-1.9-.8-3.2-.8s-3,.4-4.1,1.2c-1.1.8-1.9,1.9-2.5,3.3-.5,1.3-.8,2.8-.8,4.4v1.7c0,1.8.3,3.3.8,4.7.5,1.4,1.3,2.5,2.4,3.3,1.1.8,2.4,1.2,4.1,1.2s3-.4,4-1.2c1.1-.8,1.7-2,1.9-3.5h4.3c-.3,1.7-.9,3.1-1.8,4.3s-2.1,2.1-3.6,2.8c-1.4.7-3.1,1-4.9,1Z"/>
      <path class="cls-5" d="M507.5,401.7v-25.3h3.5l.6,5.8v19.5h-4.1ZM525.5,401.7v-14.9c0-2.4-.6-4.3-1.7-5.5-1.2-1.3-2.7-1.9-4.7-1.9s-2.8.4-3.9,1.2c-1.1.8-2,2-2.6,3.6-.6,1.5-.9,3.4-.9,5.5h-1.6c0-2.9.4-5.5,1.2-7.5.8-2.1,1.9-3.7,3.4-4.8,1.5-1.1,3.3-1.7,5.4-1.7s3.7.4,5.1,1.3c1.4.9,2.5,2.2,3.3,3.8.8,1.7,1.1,3.6,1.1,5.9v14.9h-4.1Z"/>
      <path class="cls-5" d="M552,401.7v-36.1h4.1v30.1l-1.2,5.9h-2.9ZM563.6,402.3c-1.7,0-3.2-.4-4.6-1.3-1.4-.9-2.4-2.2-3.3-3.9-.8-1.7-1.2-3.8-1.2-6.2h1.6c0,1.6.3,3,1,4.2.7,1.2,1.6,2,2.6,2.6,1.1.6,2.2.9,3.4.9s2.6-.4,3.7-1.2c1.1-.8,2-1.9,2.7-3.3.7-1.4,1-3.2,1-5.2s-.3-3.7-1-5.1c-.7-1.4-1.6-2.5-2.7-3.3s-2.4-1.1-3.8-1.1-2.3.3-3.4.9c-1.1.6-1.9,1.5-2.6,2.6-.7,1.1-1,2.6-1,4.2h-1.6c0-2.4.4-4.4,1.2-6.1.8-1.7,1.9-3,3.3-3.9,1.4-.9,3-1.3,4.9-1.3s3.8.5,5.5,1.6,3,2.6,4,4.6c1,2,1.5,4.3,1.5,7s-.5,5.1-1.5,7.1c-1,2-2.4,3.6-4.1,4.7s-3.6,1.7-5.6,1.7Z"/>
      <path class="cls-5" d="M585.6,370.4c-.8,0-1.5-.2-2-.7s-.7-1.1-.7-1.9.2-1.4.7-1.9c.5-.5,1.2-.7,2-.7s1.5.2,2,.7c.5.5.7,1.1.7,1.9s-.2,1.4-.7,1.9c-.5.5-1.2.7-2,.7ZM583.6,401.7v-25.3h4.1v25.3h-4.1Z"/>
      <path class="cls-5" d="M596.3,414.7c-1.2,0-2.4-.2-3.5-.5-1.1-.3-2.3-.8-3.5-1.5l.2-3.6c1,.6,2.1,1.1,3.1,1.4,1,.4,2,.5,3.1.5s2.6-.5,3.4-1.4c.8-1,1.2-2.4,1.2-4.4v-28.9h4.1v29c0,3.3-.7,5.8-2.2,7.2-1.5,1.5-3.4,2.2-5.8,2.2ZM602.2,370.4c-.8,0-1.5-.2-2-.7-.5-.5-.7-1.1-.7-1.9s.2-1.4.7-1.9c.5-.5,1.1-.7,2-.7s1.5.2,2,.7c.5.5.7,1.1.7,1.9s-.2,1.4-.7,1.9-1.2.7-2,.7Z"/>
      <path class="cls-5" d="M637.3,402.3c-2.3,0-4.3-.5-6.1-1.5-1.8-1-3.2-2.5-4.2-4.5-1-2-1.5-4.4-1.5-7.3s.5-5.3,1.5-7.3c1-2,2.4-3.4,4.2-4.5s3.8-1.5,6.1-1.5,4.3.5,6,1.5,3.2,2.5,4.2,4.5c1,2,1.5,4.4,1.5,7.3s-.5,5.3-1.5,7.3c-1,2-2.4,3.5-4.2,4.5-1.8,1-3.8,1.5-6,1.5ZM637.2,398.7c1.6,0,3-.4,4.2-1.2,1.1-.8,2-1.9,2.6-3.3.6-1.4.9-3.2.9-5.2,0-3-.6-5.4-1.9-7.1-1.3-1.7-3.1-2.6-5.6-2.6s-3.1.4-4.2,1.2-2,1.9-2.6,3.4c-.6,1.5-.9,3.2-.9,5.2,0,3,.6,5.3,1.9,7.1,1.3,1.7,3.1,2.6,5.6,2.6Z"/>
      <path class="cls-5" d="M657.1,401.7v-25.3h3.5l.6,5.8v19.5h-4.1ZM675,401.7v-14.9c0-2.4-.6-4.3-1.7-5.5-1.2-1.3-2.7-1.9-4.7-1.9s-2.8.4-3.9,1.2c-1.1.8-2,2-2.6,3.6-.6,1.5-.9,3.4-.9,5.5h-1.6c0-2.9.4-5.5,1.2-7.5.8-2.1,1.9-3.7,3.4-4.8,1.5-1.1,3.3-1.7,5.4-1.7s3.7.4,5.1,1.3c1.4.9,2.5,2.2,3.3,3.8.8,1.7,1.1,3.6,1.1,5.9v14.9h-4.1Z"/>
      <path class="cls-5" d="M698.1,402.3c-2.4,0-4.5-.3-6.1-1-1.6-.7-2.9-1.7-3.7-2.9-.8-1.2-1.3-2.6-1.3-4.2h4c0,1.6.7,2.8,1.9,3.6,1.2.8,2.9,1.2,4.9,1.2s2.1-.2,3-.5c.9-.4,1.6-.8,2.2-1.5s.8-1.3.8-2.1-.4-1.8-1.1-2.3c-.7-.6-1.9-1.1-3.5-1.5l-4.9-1.6c-2.1-.7-3.8-1.6-4.9-2.8-1.1-1.2-1.7-2.6-1.7-4.2s.9-3.7,2.7-4.9c1.8-1.2,4.2-1.9,7.1-1.9s5.5.6,7.2,1.9c1.7,1.3,2.6,2.9,2.7,4.8h-4.1c-.2-1.1-.7-2-1.7-2.5s-2.3-.9-4.1-.9-3,.4-4,1.1c-1,.8-1.4,1.6-1.4,2.6,0,1.7,1.5,3,4.5,3.9l5,1.7c2.2.7,3.8,1.5,5,2.6,1.2,1.1,1.7,2.4,1.7,4s-.4,2.5-1.2,3.6c-.8,1.1-2,2-3.5,2.7s-3.3,1.1-5.4,1.1Z"/>
      <path class="cls-5" d="M403.6,433.9c-.8,0-1.5-.2-2-.7s-.7-1.1-.7-1.9.2-1.4.7-1.9c.5-.5,1.2-.7,2-.7s1.5.2,2,.7c.5.5.7,1.1.7,1.9s-.2,1.4-.7,1.9c-.5.5-1.2.7-2,.7ZM401.5,465.1v-25.3h4.1v25.3h-4.1Z"/>
      <path class="cls-5" d="M417,465.1v-25.3h3.5l.6,5.8v19.5h-4.1ZM435,465.1v-14.9c0-2.4-.6-4.3-1.7-5.5s-2.7-1.9-4.7-1.9-2.8.4-3.9,1.2-2,2-2.6,3.6c-.6,1.5-.9,3.4-.9,5.5h-1.6c0-2.9.4-5.5,1.2-7.5.8-2.1,1.9-3.7,3.4-4.8,1.5-1.1,3.3-1.7,5.4-1.7s3.7.4,5.1,1.3c1.4.9,2.5,2.2,3.3,3.8.8,1.7,1.1,3.6,1.1,5.9v14.9h-4.1Z"/>
      <path class="cls-5" d="M470.5,465.7c-2,0-3.9-.6-5.6-1.7-1.7-1.1-3.1-2.7-4.1-4.7s-1.5-4.4-1.5-7.1.5-5,1.5-7,2.3-3.5,4-4.6,3.5-1.6,5.5-1.6,3.5.4,4.9,1.3c1.4.9,2.5,2.2,3.3,3.9.8,1.7,1.2,3.7,1.2,6.1h-1.6c0-1.7-.3-3.1-1-4.2-.7-1.1-1.5-2-2.6-2.6-1.1-.6-2.2-.9-3.4-.9s-2.6.4-3.8,1.2-2,1.9-2.7,3.3c-.7,1.4-1,3.1-1,5.1s.3,3.7,1,5.2c.7,1.4,1.6,2.6,2.7,3.3,1.1.8,2.4,1.2,3.8,1.2s2.3-.3,3.3-.9c1.1-.6,1.9-1.5,2.6-2.6.7-1.2,1-2.6,1-4.2h1.6c0,2.5-.4,4.5-1.2,6.2-.8,1.7-1.9,3-3.3,3.9-1.4.9-2.9,1.3-4.6,1.3ZM478.6,465.1l-.7-5.9v-30.1h4.1v36.1h-3.4Z"/>
      <path class="cls-5" d="M501.6,465.7c-2.2,0-4.1-.6-5.9-1.7s-3.1-2.7-4.1-4.7c-1-2-1.5-4.3-1.5-6.9s.5-5.1,1.5-7.1c1-2,2.3-3.5,4.1-4.6s3.7-1.6,5.9-1.6,3.6.4,4.9,1.2c1.4.8,2.4,1.8,3.3,3.1.8,1.3,1.4,2.8,1.7,4.5.3,1.7.4,3.4.3,5.2h-18.3v-2.5h15.6l-1.2.8c0-1,0-2.1-.2-3.1s-.5-2-.9-2.9c-.5-.9-1.1-1.6-1.9-2.1-.8-.5-1.9-.8-3.2-.8s-3,.4-4.1,1.2c-1.1.8-1.9,1.9-2.5,3.3-.5,1.3-.8,2.8-.8,4.4v1.7c0,1.8.3,3.3.8,4.7.5,1.4,1.3,2.5,2.4,3.3,1.1.8,2.4,1.2,4.1,1.2s3-.4,4-1.2c1.1-.8,1.7-2,1.9-3.5h4.3c-.3,1.7-.9,3.1-1.8,4.3s-2.1,2.1-3.6,2.8c-1.4.7-3.1,1-4.9,1Z"/>
      <path class="cls-5" d="M528.1,439.8h4.3l6.5,21.1h-.5l6.3-19.9h3.4l6.2,19.9h-.5l6.4-21.1h4.1l-8.3,25.3h-4l-6.1-18.7h.6l-6.1,18.7h-4l-8.4-25.3Z"/>
      <path class="cls-5" d="M573.1,433.9c-.8,0-1.5-.2-2-.7s-.7-1.1-.7-1.9.2-1.4.7-1.9c.5-.5,1.2-.7,2-.7s1.5.2,2,.7c.5.5.7,1.1.7,1.9s-.2,1.4-.7,1.9c-.5.5-1.2.7-2,.7ZM571,465.1v-25.3h4.1v25.3h-4.1Z"/>
      <path class="cls-5" d="M586.5,465.1v-25.3h3.5l.6,5.8v19.5h-4.1ZM604.5,465.1v-14.9c0-2.4-.6-4.3-1.7-5.5s-2.7-1.9-4.7-1.9-2.8.4-3.9,1.2-2,2-2.6,3.6c-.6,1.5-.9,3.4-.9,5.5h-1.6c0-2.9.4-5.5,1.2-7.5.8-2.1,1.9-3.7,3.4-4.8,1.5-1.1,3.3-1.7,5.4-1.7s3.7.4,5.1,1.3c1.4.9,2.5,2.2,3.3,3.8.8,1.7,1.1,3.6,1.1,5.9v14.9h-4.1Z"/>
      <path class="cls-5" d="M618.4,465.1v-36.1h4.1v36.1h-4.1ZM621.9,450.6l12.9-10.8h5.8l-18.7,15.2v-4.4ZM636.1,465.1l-12-16,4.2-.7,12.9,16.7h-5.1Z"/>
      <path class="cls-5" d="M657,465.7c-2.2,0-4.1-.6-5.9-1.7s-3.1-2.7-4.1-4.7c-1-2-1.5-4.3-1.5-6.9s.5-5.1,1.5-7.1c1-2,2.3-3.5,4.1-4.6s3.7-1.6,5.9-1.6,3.6.4,4.9,1.2c1.4.8,2.4,1.8,3.3,3.1.8,1.3,1.4,2.8,1.7,4.5.3,1.7.4,3.4.3,5.2h-18.3v-2.5h15.6l-1.2.8c0-1,0-2.1-.2-3.1s-.5-2-.9-2.9c-.5-.9-1.1-1.6-1.9-2.1-.8-.5-1.9-.8-3.2-.8s-3,.4-4.1,1.2c-1.1.8-1.9,1.9-2.5,3.3-.5,1.3-.8,2.8-.8,4.4v1.7c0,1.8.3,3.3.8,4.7.5,1.4,1.3,2.5,2.4,3.3,1.1.8,2.4,1.2,4.1,1.2s3-.4,4-1.2c1.1-.8,1.7-2,1.9-3.5h4.3c-.3,1.7-.9,3.1-1.8,4.3s-2.1,2.1-3.6,2.8c-1.4.7-3.1,1-4.9,1Z"/>
      <path class="cls-5" d="M675.4,465.1v-36.1h4.1v36.1h-4.1Z"/>
      <path class="cls-5" d="M694.2,456.6v-2.4c0-1.5.2-2.8.5-3.8.3-1,.9-1.8,1.6-2.6.8-.7,1.8-1.4,3.1-2.2,1.2-.6,2.1-1.2,2.8-1.8.7-.5,1.2-1.1,1.5-1.8.3-.6.5-1.4.5-2.3,0-1.4-.6-2.5-1.7-3.4s-2.7-1.4-4.6-1.4-3.8.4-5,1.3-1.9,2-2.2,3.6h-4.4c.2-2.6,1.3-4.7,3.2-6.2,1.9-1.6,4.6-2.4,8.2-2.4s4.2.4,5.8,1.2c1.6.8,2.9,1.8,3.8,3.1.9,1.3,1.3,2.8,1.3,4.3s-.5,3.3-1.4,4.6c-.9,1.2-2.4,2.4-4.4,3.5-1.2.7-2.1,1.3-2.8,1.8-.7.6-1.2,1.2-1.4,1.9-.3.7-.4,1.6-.4,2.8v2.1h-4.1ZM696.3,465.7c-.9,0-1.6-.3-2.2-.9s-.9-1.3-.9-2.1.3-1.5.9-2.1c.6-.6,1.3-.9,2.2-.9s1.6.3,2.3.9c.6.6.9,1.3.9,2.1s-.3,1.5-.9,2.1c-.6.6-1.4.9-2.2.9Z"/>
    </g>
  </g>
</svg>