<?xml version="1.0" encoding="utf-8"?>
<!-- Generator: Adobe Illustrator 28.2.0, SVG Export Plug-In . SVG Version: 6.00 Build 0)  -->
<svg version="1.1" id="Laag_1" xmlns="http://www.w3.org/2000/svg" xmlns:xlink="http://www.w3.org/1999/xlink" x="0px" y="0px"
	 width="360.1px" height="243.8px" viewBox="0 0 360.1 243.8" style="enable-background:new 0 0 360.1 243.8;" xml:space="preserve"
	>
<style type="text/css">
	.st0{fill:#00AADB;}
	.st1{fill:#B1DFF3;}
	.st2{fill:#00B3DF;}
	.st3{fill:#5EC4E8;}
	.st4{fill:#FFFFFF;}
	.st5{fill:#F088B6;}
	.st6{fill:#E6007E;}
	.st7{fill:none;stroke:#E8318A;stroke-width:3.2489;stroke-miterlimit:10;}
	.st8{fill:#F5B5D2;}
</style>
<path class="st0" d="M152.3,82.8l23.1-25.4c0,0-1.1-10.7-8.8-13.8c-7.7-3.1,2-10.6,7.1-5.9c2.5,2.2,4.9,4.5,7.1,6.9
	c0,0,10.1-19.5,13.6-19.8s10.1-0.1-2,16.3c0,0,18.6-13,20.5-6c2,6.9-13.8,11-13.8,11s20.5-5.4,20.8,0.5c0.2,5.9-17.2,7.4-17.2,7.4
	s-5.7,10.3-12.7,9.7l-32.7,41.7"/>
<path class="st1" d="M117.2,1c0,0,18.3,23.3,0.6,36.6c0,0,4.6,14.2,19.9,13.8C137.8,51.5,161.6,13.3,117.2,1z"/>
<path class="st1" d="M20.2,24.1c0,0-8.6,28.3,12.7,34.3c0,0,0.9,15-13.6,20.2C19.5,78.5-16.6,51.6,20.2,24.1z"/>
<path class="st2" d="M73.3,189.4c0,0-17.4,4.6-5.4,20.8c0,0-28.4,2.6-28,11.8s20.2,13.6,34.9,7.8s11.5-13.6,6-21.4
	c-7.5-11,15.4-12.8,15.4-12.8S78.1,188.2,73.3,189.4z"/>
<path class="st2" d="M147.9,153.6c0,0,19.6-11.9,16.9,9.5c0,0,26-11.8,30.2-3.6s-10.9,21.9-26.4,24c-15.6,2.1-16.9-6.2-15.9-15.7
	s-14.5,6.9-14.5,6.9S143,155,147.9,153.6z"/>
<path class="st2" d="M26.3,126.7c0,0-35,19.3-24.2,35.4s32.3,11,32.3,11s-0.9,14.6,12.2,9.5c9.7-3.8,16.1-6.8,7.7-15.4
	c-12.8-13-37.2-14.2-37.2-14.2l16.9-8.8L26.3,126.7z"/>
<path class="st3" d="M155,83.4c-10.9-52.4-44.3-50.9-81.4-42S7.8,64.1,20.5,116s53,87.5,90.2,77.8C142.4,185.5,166.6,139.7,155,83.4
	z"/>
<path d="M97.3,138.7c16.8-3.9,27.4-20.6,23.6-37.5l-61.7,14.9c4.2,16.7,21,26.8,37.7,22.6C97,138.7,97.1,138.7,97.3,138.7z"/>
<path class="st4" d="M73.3,112.8l6.2,8.1c0.6,0.8,1.8,1,2.6,0.4c0.4-0.3,0.6-0.7,0.7-1.1l1.7-10.1L73.3,112.8z"/>
<path class="st4" d="M84.3,110.1l6.2,8.2c0.7,0.8,1.9,0.9,2.7,0.2c0.3-0.2,0.5-0.6,0.6-0.9l1.7-10.1L84.3,110.1z"/>
<path class="st4" d="M95.6,107.4l6.2,8.2c0.6,0.8,1.8,1,2.6,0.4c0.4-0.3,0.6-0.7,0.7-1.1l1.7-10L95.6,107.4z"/>
<circle class="st4" cx="59.1" cy="84" r="20.2"/>
<ellipse transform="matrix(0.9715 -0.2368 0.2368 0.9715 -18.9735 16.6542)" cx="59.8" cy="87.3" rx="12.5" ry="13"/>
<circle class="st4" cx="62.2" cy="81.7" r="4.8"/>
<circle class="st4" cx="57.7" cy="89.3" r="2.6"/>
<ellipse transform="matrix(0.1602 -0.9871 0.9871 0.1602 17.082 165.3834)" class="st4" cx="105.7" cy="72.7" rx="20.2" ry="20.2"/>
<ellipse transform="matrix(0.8915 -0.4531 0.4531 0.8915 -22.8631 56.4962)" cx="106.5" cy="76" rx="12.5" ry="13"/>
<ellipse transform="matrix(0.1735 -0.9848 0.9848 0.1735 20.6936 165.4436)" class="st4" cx="108.9" cy="70.4" rx="4.8" ry="4.8"/>
<circle class="st4" cx="104.2" cy="77.9" r="2.6"/>
<ellipse class="st5" cx="149.1" cy="123.6" rx="4.8" ry="11.3"/>
<ellipse transform="matrix(3.821345e-02 -0.9993 0.9993 3.821345e-02 -2.3829 270.3041)" class="st5" cx="139.2" cy="136.4" rx="6.9" ry="3"/>
<ellipse transform="matrix(0.3769 -0.9263 0.9263 0.3769 -47.9615 227.2311)" class="st5" cx="144.9" cy="149.3" rx="7.6" ry="2.7"/>
<path class="st6" d="M305.7,97.4c0,0,17.6,11.7,23.8,10c6.2-1.7,14.9,0.1,16.9,1.5c1.9,1.5,5.7,4.1,2.3,6.7s-17.6,1.9-17,5
	c0.7,3.1,2.4,12.5-1.5,10.9c-3.9-1.6-2.2-7.3-6.7-10.2c-4.5-2.9-15-6.2-16.4-5.8C305.6,116,305.7,97.4,305.7,97.4z"/>
<path class="st6" d="M201.5,224.2L201.5,224.2c-7.9-1.4,5.4-9.2,8.7-17.7l-7.4-62.3l31.7,1.6l-15.9,65.3
	C217.1,219.8,209.3,225.7,201.5,224.2z"/>
<path class="st6" d="M273.1,199.8L273.1,199.8c7.5-2.8-5.8-5.4-7.9-11.2l2.9-45.9l-32.2,8.9l19.6,42.6
	C257.7,200,265.5,202.5,273.1,199.8z"/>
<path class="st6" d="M167.3,100.2c0,0-6.4,24.9-15.2,26.1c-8.8,1.2-16.8-2.4-21,3.9c-4.4,6.9,26.8,4.7,27.9,11
	c1.1,6.3,10.6,8.3,9.1,1.8c-1.6-6.5-2.5-10.6,5.6-22.9L167.3,100.2z"/>
<ellipse transform="matrix(0.1352 -0.9908 0.9908 0.1352 108.1706 320.2736)" class="st5" cx="237.6" cy="98.2" rx="73.6" ry="72.7"/>
<path class="st4" d="M208.7,131l4.1-11.1c0.5-1,0-2.3-1-2.7c-0.6-0.3-1.2-0.2-1.8,0l-10.9,4.8L208.7,131z"/>
<path class="st4" d="M256.4,137.5l-1-11.8c-0.2-1.1,0.7-2.2,1.8-2.4c0.6-0.1,1.2,0.1,1.7,0.5l9.2,7.5L256.4,137.5z"/>
<ellipse transform="matrix(0.1352 -0.9908 0.9908 0.1352 127.0979 307.8196)" class="st4" cx="239.9" cy="81.1" rx="36" ry="35.5"/>
<ellipse transform="matrix(0.9729 -0.2312 0.2312 0.9729 -13.634 57.9604)" cx="240.4" cy="87.1" rx="22" ry="23.1"/>
<circle class="st4" cx="236.1" cy="90.2" r="4.7"/>
<path class="st7" d="M188.9,83.5c-4.3,27.3,14.3,52.9,41.6,57.2c27.3,4.3,52.9-14.3,57.2-41.6c0.1-0.7,0.2-1.4,0.3-2.1"/>
<ellipse transform="matrix(0.1352 -0.9908 0.9908 0.1352 77.5592 261.4461)" class="st8" cx="188.6" cy="86.3" rx="14" ry="13.9"/>
<ellipse transform="matrix(0.1352 -0.9908 0.9908 0.1352 149.9659 371.488)" class="st8" cx="287.8" cy="99.8" rx="14" ry="13.9"/>
<path class="st0" d="M226.2,35.1l22-9.4c2.9-1.2,4.2-4.6,2.9-7.4c-0.4-0.8-0.9-1.6-1.6-2.1L230.8,1.3c-2.4-1.9-5.9-1.6-7.8,0.8
	c-0.7,0.8-1.1,1.8-1.2,2.9l-3.3,24.2c-0.4,3.1,1.8,5.9,4.8,6.4C224.3,35.6,225.3,35.4,226.2,35.1z"/>
<path class="st0" d="M269.9,6.8l-22,9.4c-2.9,1.2-4.2,4.5-3,7.4c0.4,0.9,0.9,1.6,1.7,2.2l18.7,14.9c2.4,1.9,5.9,1.6,7.8-0.8
	c0.7-0.8,1.1-1.8,1.2-2.9l3.3-24.1c0.5-3-1.5-5.9-4.6-6.4C271.9,6.3,270.8,6.4,269.9,6.8z"/>
<ellipse transform="matrix(0.1352 -0.9908 0.9908 0.1352 193.6602 264.0221)" class="st3" cx="248.1" cy="21.1" rx="9.1" ry="9.1"/>
<ellipse transform="matrix(0.1352 -0.9908 0.9908 0.1352 135.6173 311.0003)" class="st4" cx="246" cy="77.8" rx="8.5" ry="8.5"/>
</svg>
