<?xml version="1.0" encoding="utf-8"?>
<!-- Generator: Adobe Illustrator 28.3.0, SVG Export Plug-In . SVG Version: 6.00 Build 0)  -->
<svg version="1.1" id="Laag_1" xmlns="http://www.w3.org/2000/svg" xmlns:xlink="http://www.w3.org/1999/xlink" x="0px" y="0px"
	 width="64px" height="64px" viewBox="0 0 64 64" style="enable-background:new 0 0 64 64;" xml:space="preserve">
<path d="M9.1,0C4.1,0,0,4.1,0,9.1v45.7c0,5,4.1,9.1,9.1,9.1h14V43.2h-7.5V32h7.5v-4.8C23.2,14.7,28.8,9,41,9c2.3,0,6.3,0.5,8,0.9V20
	c-0.9-0.1-2.4-0.1-4.2-0.1c-6,0-8.3,2.3-8.3,8.2v4h11.9l-2.1,11.2h-9.9V64h18.4c5,0,9.1-4.1,9.1-9.1V9.1c0-5-4.1-9.1-9.1-9.1H9.1z"
	/>
</svg>
